<?xml version="1.0" encoding="utf-8"?>
<!-- Generator: Adobe Illustrator 27.5.0, SVG Export Plug-In . SVG Version: 6.00 Build 0)  -->
<svg version="1.1" id="Ñëîé_1" xmlns="http://www.w3.org/2000/svg" xmlns:xlink="http://www.w3.org/1999/xlink" x="0px" y="0px"
	 viewBox="0 0 470 470" style="enable-background:new 0 0 470 470;" xml:space="preserve">
<rect style="fill:#FFFFFF;" width="470" height="470"/>
<g>
	<path style="fill:#9EC9D5;" d="M430.553,244.219c0-105.742-85.721-191.463-191.463-191.463
		c-105.741,0-191.463,85.721-191.463,191.463c0,26.182,5.262,51.131,14.773,73.859h353.379
		C425.291,295.35,430.553,270.4,430.553,244.219z"/>
	<g>
		<path style="fill:#8BBFCE;" d="M276.611,170.375h-36.475v104.212h36.475V170.375z M255.422,264.84h-8.119v-7.059h8.119V264.84z
			 M255.422,248.044h-8.119v-7.059h8.119V248.044z M255.422,231.249h-8.119v-7.058h8.119V231.249z M255.422,214.454h-8.119v-7.057
			h8.119V214.454z M255.422,197.659h-8.119v-7.057h8.119V197.659z M269.445,264.84h-8.123v-7.059h8.123V264.84z M269.445,248.044
			h-8.123v-7.059h8.123V248.044z M269.445,231.249h-8.123v-7.058h8.123V231.249z M269.445,214.454h-8.123v-7.057h8.123V214.454z
			 M269.445,197.659h-8.123v-7.057h8.123V197.659z"/>
		<rect x="247.303" y="190.602" style="fill:#83B3C3;" width="8.119" height="7.057"/>
		<rect x="261.322" y="190.602" style="fill:#83B3C3;" width="8.123" height="7.057"/>
		<rect x="247.303" y="207.398" style="fill:#83B3C3;" width="8.119" height="7.057"/>
		<rect x="261.322" y="207.398" style="fill:#83B3C3;" width="8.123" height="7.057"/>
		<rect x="247.303" y="224.191" style="fill:#83B3C3;" width="8.119" height="7.058"/>
		<rect x="261.322" y="224.191" style="fill:#83B3C3;" width="8.123" height="7.058"/>
		<rect x="247.303" y="240.984" style="fill:#83B3C3;" width="8.119" height="7.06"/>
		<rect x="261.322" y="240.984" style="fill:#83B3C3;" width="8.123" height="7.06"/>
		<rect x="247.303" y="257.781" style="fill:#83B3C3;" width="8.119" height="7.058"/>
		<rect x="261.322" y="257.781" style="fill:#83B3C3;" width="8.123" height="7.058"/>
	</g>
	<rect x="281.305" y="209.354" style="fill:#DD6F50;" width="51.691" height="53.887"/>
	<rect x="274.455" y="248.73" style="fill:#E58B72;" width="66.484" height="69.864"/>
	<g>
		<g>
			<g>
				<g>
					<path style="fill:#C5483A;" d="M295.707,260.208c0-3.974-3.219-7.188-7.188-7.188c-3.967,0-7.18,3.214-7.18,7.188l0.154,54.095
						h14.213V260.208z"/>
				</g>
			</g>
		</g>
		<g>
			<path style="fill:#DD6F50;" d="M295.707,261.943c0-3.635-2.85-6.587-6.352-6.587c-3.508,0-6.348,2.952-6.348,6.587l0.113,52.359
				h12.586V261.943z"/>
		</g>
	</g>
	<g>
		<g>
			<g>
				<g>
					<path style="fill:#C5483A;" d="M314.48,260.208c0-3.974-3.219-7.188-7.188-7.188c-3.967,0-7.18,3.214-7.18,7.188l0.154,54.095
						h14.213V260.208z"/>
				</g>
			</g>
		</g>
		<g>
			<path style="fill:#DD6F50;" d="M314.48,261.943c0-3.635-2.85-6.587-6.35-6.587c-3.51,0-6.348,2.952-6.348,6.587l0.111,52.359
				h12.586V261.943z"/>
		</g>
	</g>
	<g>
		<g>
			<g>
				<g>
					<path style="fill:#C5483A;" d="M333.254,260.208c0-3.974-3.219-7.188-7.188-7.188c-3.967,0-7.18,3.214-7.18,7.188l0.154,54.095
						h14.213V260.208z"/>
				</g>
			</g>
		</g>
		<g>
			<path style="fill:#DD6F50;" d="M333.254,261.943c0-3.635-2.85-6.587-6.352-6.587c-3.508,0-6.348,2.952-6.348,6.587l0.113,52.359
				h12.586V261.943z"/>
		</g>
	</g>
	<g>
		<g>
			<path style="fill:#8BBFCE;" d="M170.853,267.546h-36.474v81.895h36.474V267.546z M149.663,345.216h-8.119v-7.059h8.119V345.216z
				 M149.663,328.421h-8.119v-7.06h8.119V328.421z M149.663,311.626h-8.119v-7.059h8.119V311.626z M149.663,294.831h-8.119v-7.058
				h8.119V294.831z M163.686,345.216h-8.122v-7.059h8.122V345.216z M163.686,328.421h-8.122v-7.06h8.122V328.421z M163.686,311.626
				h-8.122v-7.059h8.122V311.626z M155.564,294.831v-7.058h8.122v7.058H155.564z"/>
		</g>
		<g>
			<g>
				<g>
					<rect x="141.544" y="287.773" style="fill:#83B3C3;" width="8.119" height="7.058"/>
					<rect x="155.564" y="287.773" style="fill:#83B3C3;" width="8.122" height="7.058"/>
					<rect x="141.544" y="304.567" style="fill:#83B3C3;" width="8.119" height="7.059"/>
					<rect x="155.564" y="304.567" style="fill:#83B3C3;" width="8.122" height="7.059"/>
					<rect x="141.544" y="321.361" style="fill:#83B3C3;" width="8.119" height="7.06"/>
					<rect x="155.564" y="321.361" style="fill:#83B3C3;" width="8.122" height="7.06"/>
					<rect x="141.544" y="338.156" style="fill:#83B3C3;" width="8.119" height="7.06"/>
					<rect x="155.564" y="338.156" style="fill:#83B3C3;" width="8.122" height="7.06"/>
				</g>
			</g>
			<g>
				<g>
					<path style="fill:#8BBFCE;" d="M170.853,183.135h-36.474v104.214h36.474V183.135z M149.663,277.599h-8.119v-7.056h8.119
						V277.599z M149.663,260.805h-8.119v-7.06h8.119V260.805z M149.663,244.011h-8.119v-7.059h8.119V244.011z M149.663,227.215
						h-8.119v-7.059h8.119V227.215z M149.663,210.419h-8.119v-7.056h8.119V210.419z M163.686,277.599h-8.122v-7.056h8.122V277.599z
						 M163.686,260.805h-8.122v-7.06h8.122V260.805z M163.686,244.011h-8.122v-7.059h8.122V244.011z M163.686,227.215h-8.122v-7.059
						h8.122V227.215z M163.686,210.419h-8.122v-7.056h8.122V210.419z"/>
					<rect x="141.544" y="203.363" style="fill:#83B3C3;" width="8.119" height="7.056"/>
					<rect x="155.564" y="203.363" style="fill:#83B3C3;" width="8.122" height="7.056"/>
					<rect x="141.544" y="220.156" style="fill:#83B3C3;" width="8.119" height="7.058"/>
					<rect x="155.564" y="220.156" style="fill:#83B3C3;" width="8.122" height="7.058"/>
					<rect x="141.544" y="236.951" style="fill:#83B3C3;" width="8.119" height="7.06"/>
					<rect x="155.564" y="236.951" style="fill:#83B3C3;" width="8.122" height="7.06"/>
					<rect x="141.544" y="253.745" style="fill:#83B3C3;" width="8.119" height="7.06"/>
					<rect x="155.564" y="253.745" style="fill:#83B3C3;" width="8.122" height="7.06"/>
					<rect x="141.544" y="270.543" style="fill:#83B3C3;" width="8.119" height="7.056"/>
					<rect x="155.564" y="270.543" style="fill:#83B3C3;" width="8.122" height="7.056"/>
				</g>
				<g>
					<path style="fill:#8BBFCE;" d="M170.853,97.172h-36.474v104.212h36.474V97.172z M149.663,191.636h-8.119v-7.058h8.119V191.636z
						 M149.663,174.841h-8.119v-7.06h8.119V174.841z M149.663,158.046h-8.119v-7.059h8.119V158.046z M149.663,141.251h-8.119v-7.058
						h8.119V141.251z M149.663,124.456h-8.119v-7.057h8.119V124.456z M163.686,191.636h-8.122v-7.058h8.122V191.636z
						 M163.686,174.841h-8.122v-7.06h8.122V174.841z M163.686,158.046h-8.122v-7.059h8.122V158.046z M163.686,141.251h-8.122v-7.058
						h8.122V141.251z M163.686,124.456h-8.122v-7.057h8.122V124.456z"/>
					<rect x="141.544" y="117.399" style="fill:#83B3C3;" width="8.119" height="7.057"/>
					<rect x="155.564" y="117.399" style="fill:#83B3C3;" width="8.122" height="7.057"/>
					<rect x="141.544" y="134.193" style="fill:#83B3C3;" width="8.119" height="7.058"/>
					<rect x="155.564" y="134.193" style="fill:#83B3C3;" width="8.122" height="7.058"/>
					<rect x="141.544" y="150.987" style="fill:#83B3C3;" width="8.119" height="7.059"/>
					<rect x="155.564" y="150.987" style="fill:#83B3C3;" width="8.122" height="7.059"/>
					<rect x="141.544" y="167.781" style="fill:#83B3C3;" width="8.119" height="7.06"/>
					<rect x="155.564" y="167.781" style="fill:#83B3C3;" width="8.122" height="7.06"/>
					<rect x="141.544" y="184.578" style="fill:#83B3C3;" width="8.119" height="7.058"/>
					<rect x="155.564" y="184.578" style="fill:#83B3C3;" width="8.122" height="7.058"/>
				</g>
			</g>
		</g>
	</g>
	<g>
		<rect x="174.845" y="155.401" style="fill:#FED186;" width="32.115" height="162.782"/>
		<rect x="202.479" y="155.401" style="fill:#D4B36F;" width="27.751" height="162.782"/>
		<polygon style="fill:#FED186;" points="174.845,155.401 188.871,132.408 202.479,155.401 		"/>
		<polygon style="fill:#744E3A;" points="230.229,155.401 202.479,155.401 188.871,132.408 216.891,132.408 		"/>
		<g>
			<rect x="206.622" y="132.445" style="fill:#FED186;" width="3.801" height="13.314"/>
			<rect x="210.423" y="132.445" style="fill:#D4B36F;" width="5.775" height="13.314"/>
			<rect x="205.457" y="128.924" style="fill:#FEDA9E;" width="6.134" height="4.58"/>
			<rect x="211.591" y="128.924" style="fill:#D4B36F;" width="6.14" height="4.58"/>
			<rect x="210.423" y="133.504" style="fill:#9F8653;" width="5.775" height="0.823"/>
			<rect x="206.622" y="133.504" style="fill:#BF9D65;" width="3.812" height="0.823"/>
			<rect x="205.457" y="128.924" style="fill:#FEE3B6;" width="6.134" height="0.988"/>
			<rect x="211.591" y="128.924" style="fill:#BF9D65;" width="6.14" height="0.988"/>
		</g>
		<rect x="202.479" y="155.401" style="fill:#BF9D65;" width="27.751" height="2.534"/>
		<g>
			<g>
				<rect x="205.667" y="162.869" style="fill:#C2C3C6;" width="7.871" height="13.543"/>
				<rect x="205.667" y="162.869" style="fill:#7F9D98;" width="6.683" height="12.352"/>
			</g>
			<g>
				<rect x="218.819" y="162.869" style="fill:#C2C3C6;" width="7.865" height="13.543"/>
				<rect x="218.819" y="162.869" style="fill:#7F9D98;" width="6.683" height="12.352"/>
			</g>
			<g>
				<rect x="205.904" y="184.748" style="fill:#C2C3C6;" width="7.862" height="13.544"/>
				<rect x="205.904" y="184.748" style="fill:#7F9D98;" width="6.685" height="12.356"/>
			</g>
			<g>
				<rect x="218.819" y="184.748" style="fill:#C2C3C6;" width="7.865" height="13.544"/>
				<rect x="218.819" y="184.748" style="fill:#7F9D98;" width="6.683" height="12.356"/>
			</g>
			<g>
				<rect x="205.959" y="204.028" style="fill:#C2C3C6;" width="7.868" height="13.542"/>
				<rect x="205.959" y="204.028" style="fill:#7F9D98;" width="6.685" height="12.352"/>
			</g>
			<g>
				<rect x="218.876" y="204.028" style="fill:#C2C3C6;" width="7.868" height="13.542"/>
				<rect x="218.876" y="204.028" style="fill:#7F9D98;" width="6.685" height="12.352"/>
			</g>
			<g>
				<rect x="206.021" y="223.307" style="fill:#C2C3C6;" width="7.863" height="13.543"/>
				<rect x="206.021" y="223.307" style="fill:#7F9D98;" width="6.684" height="12.349"/>
			</g>
			<g>
				<rect x="218.936" y="223.307" style="fill:#C2C3C6;" width="7.861" height="13.543"/>
				<rect x="218.936" y="223.307" style="fill:#7F9D98;" width="6.685" height="12.349"/>
			</g>
			<g>
				<rect x="206.075" y="242.584" style="fill:#C2C3C6;" width="7.87" height="13.544"/>
				<rect x="206.075" y="242.584" style="fill:#7F9D98;" width="6.684" height="12.351"/>
			</g>
			<g>
				<rect x="218.993" y="242.584" style="fill:#C2C3C6;" width="7.868" height="13.544"/>
				<rect x="218.993" y="242.584" style="fill:#7F9D98;" width="6.683" height="12.351"/>
			</g>
			<g>
				<rect x="206.136" y="261.863" style="fill:#C2C3C6;" width="7.862" height="13.546"/>
				<rect x="206.136" y="261.863" style="fill:#7F9D98;" width="6.684" height="12.351"/>
			</g>
			<g>
				<rect x="219.053" y="261.863" style="fill:#C2C3C6;" width="7.863" height="13.546"/>
				<rect x="219.053" y="261.863" style="fill:#7F9D98;" width="6.685" height="12.351"/>
			</g>
		</g>
		<g>
			<g>
				<rect x="206.136" y="282.125" style="fill:#C2C3C6;" width="7.862" height="13.548"/>
				<rect x="206.136" y="282.125" style="fill:#7F9D98;" width="6.684" height="12.356"/>
			</g>
			<g>
				<rect x="219.286" y="282.125" style="fill:#C2C3C6;" width="7.865" height="13.548"/>
				<rect x="219.286" y="282.125" style="fill:#7F9D98;" width="6.685" height="12.356"/>
			</g>
		</g>
		<g>
			<g>
				<rect x="190.842" y="282.125" style="fill:#C2C3C6;" width="7.865" height="13.548"/>
				<rect x="192.02" y="282.125" style="fill:#7F9D98;" width="6.687" height="12.356"/>
			</g>
			<g>
				<rect x="177.693" y="282.125" style="fill:#C2C3C6;" width="7.867" height="13.548"/>
				<rect x="178.879" y="282.125" style="fill:#7F9D98;" width="6.681" height="12.356"/>
			</g>
		</g>
		<g>
			<g>
				<rect x="191.419" y="162.869" style="fill:#C2C3C6;" width="7.87" height="13.543"/>
				<rect x="192.606" y="162.869" style="fill:#7F9D98;" width="6.682" height="12.352"/>
			</g>
			<g>
				<rect x="178.275" y="162.869" style="fill:#C2C3C6;" width="7.864" height="13.543"/>
				<rect x="179.454" y="162.869" style="fill:#7F9D98;" width="6.685" height="12.352"/>
			</g>
			<g>
				<rect x="191.188" y="184.748" style="fill:#C2C3C6;" width="7.865" height="13.544"/>
				<rect x="192.373" y="184.748" style="fill:#7F9D98;" width="6.679" height="12.356"/>
			</g>
			<g>
				<rect x="178.275" y="184.748" style="fill:#C2C3C6;" width="7.864" height="13.544"/>
				<rect x="179.454" y="184.748" style="fill:#7F9D98;" width="6.685" height="12.356"/>
			</g>
			<g>
				<rect x="191.132" y="204.028" style="fill:#C2C3C6;" width="7.862" height="13.542"/>
				<rect x="192.312" y="204.028" style="fill:#7F9D98;" width="6.682" height="12.352"/>
			</g>
			<g>
				<rect x="178.215" y="204.028" style="fill:#C2C3C6;" width="7.87" height="13.542"/>
				<rect x="179.4" y="204.028" style="fill:#7F9D98;" width="6.684" height="12.352"/>
			</g>
			<g>
				<rect x="191.072" y="223.307" style="fill:#C2C3C6;" width="7.867" height="13.543"/>
				<rect x="192.256" y="223.307" style="fill:#7F9D98;" width="6.684" height="12.349"/>
			</g>
			<g>
				<rect x="178.154" y="223.307" style="fill:#C2C3C6;" width="7.87" height="13.543"/>
				<rect x="179.341" y="223.307" style="fill:#7F9D98;" width="6.683" height="12.349"/>
			</g>
			<g>
				<rect x="191.011" y="242.584" style="fill:#C2C3C6;" width="7.869" height="13.544"/>
				<rect x="192.194" y="242.584" style="fill:#7F9D98;" width="6.686" height="12.351"/>
			</g>
			<g>
				<rect x="178.101" y="242.584" style="fill:#C2C3C6;" width="7.859" height="13.544"/>
				<rect x="179.281" y="242.584" style="fill:#7F9D98;" width="6.679" height="12.351"/>
			</g>
			<g>
				<rect x="190.955" y="261.863" style="fill:#C2C3C6;" width="7.868" height="13.546"/>
				<rect x="192.137" y="261.863" style="fill:#7F9D98;" width="6.686" height="12.351"/>
			</g>
			<g>
				<rect x="178.037" y="261.863" style="fill:#C2C3C6;" width="7.87" height="13.546"/>
				<rect x="179.221" y="261.863" style="fill:#7F9D98;" width="6.686" height="12.351"/>
			</g>
		</g>
		<rect x="174.789" y="305.975" style="fill:#80624D;" width="27.63" height="12.209"/>
		<rect x="202.419" y="305.975" style="fill:#744E3A;" width="27.751" height="12.209"/>
	</g>
	<path style="fill:#999696;" d="M62.4,318.078c28.909,69.071,97.129,117.603,176.689,117.603
		c79.561,0,147.781-48.531,176.689-117.603H62.4z"/>
	<g>
		<path style="fill:#8BBFCE;" d="M372.551,144.919h-27.947l-8.527,19.012V317.29h36.188L372.551,144.919z M351.361,239.385h-8.119
			v-7.059h8.119V239.385z M351.361,222.589h-8.119v-7.06h8.119V222.589z M351.361,205.795h-8.119v-7.06h8.119V205.795z
			 M351.361,188.999h-8.119v-7.059h8.119V188.999z M351.361,172.205h-8.119v-7.059h8.119V172.205z M365.385,239.385h-8.121v-7.059
			h8.121V239.385z M365.385,222.589h-8.121v-7.06h8.121V222.589z M365.385,205.795h-8.121v-7.06h8.121V205.795z M365.385,188.999
			h-8.121v-7.059h8.121V188.999z M365.385,172.205h-8.121v-7.059h8.121V172.205z"/>
		<rect x="343.242" y="165.146" style="fill:#83B3C3;" width="8.119" height="7.059"/>
		<rect x="357.264" y="165.146" style="fill:#83B3C3;" width="8.121" height="7.059"/>
		<rect x="343.242" y="181.94" style="fill:#83B3C3;" width="8.119" height="7.059"/>
		<rect x="357.264" y="181.94" style="fill:#83B3C3;" width="8.121" height="7.059"/>
		<rect x="343.242" y="198.735" style="fill:#83B3C3;" width="8.119" height="7.06"/>
		<rect x="357.264" y="198.735" style="fill:#83B3C3;" width="8.121" height="7.06"/>
		<rect x="343.242" y="215.529" style="fill:#83B3C3;" width="8.119" height="7.06"/>
		<rect x="357.264" y="215.529" style="fill:#83B3C3;" width="8.121" height="7.06"/>
		<rect x="343.242" y="232.326" style="fill:#83B3C3;" width="8.119" height="7.059"/>
		<rect x="357.264" y="232.326" style="fill:#83B3C3;" width="8.121" height="7.059"/>
	</g>
	<g>
		<path style="fill:#8BBFCE;" d="M94.128,173.287H66.179l-8.524,19.012v85.2h36.474V173.287z M72.938,267.751h-8.12v-7.057h8.12
			V267.751z M72.938,250.956h-8.12v-7.058h8.12V250.956z M72.938,234.161h-8.12v-7.06h8.12V234.161z M72.938,217.366h-8.12v-7.057
			h8.12V217.366z M72.938,200.572h-8.12v-7.058h8.12V200.572z M86.963,267.751h-8.125v-7.057h8.125V267.751z M86.963,250.956h-8.125
			v-7.058h8.125V250.956z M86.963,234.161h-8.125v-7.06h8.125V234.161z M86.963,217.366h-8.125v-7.057h8.125V217.366z
			 M86.963,200.572h-8.125v-7.058h8.125V200.572z"/>
		<rect x="64.817" y="193.515" style="fill:#83B3C3;" width="8.12" height="7.058"/>
		<rect x="78.838" y="193.515" style="fill:#83B3C3;" width="8.125" height="7.058"/>
		<rect x="64.817" y="210.31" style="fill:#83B3C3;" width="8.12" height="7.057"/>
		<rect x="78.838" y="210.31" style="fill:#83B3C3;" width="8.125" height="7.057"/>
		<rect x="64.817" y="227.102" style="fill:#83B3C3;" width="8.12" height="7.06"/>
		<rect x="78.838" y="227.102" style="fill:#83B3C3;" width="8.125" height="7.06"/>
		<rect x="64.817" y="243.898" style="fill:#83B3C3;" width="8.12" height="7.058"/>
		<rect x="78.838" y="243.898" style="fill:#83B3C3;" width="8.125" height="7.058"/>
		<rect x="64.817" y="260.694" style="fill:#83B3C3;" width="8.12" height="7.057"/>
		<rect x="78.838" y="260.694" style="fill:#83B3C3;" width="8.125" height="7.057"/>
	</g>
	<g>
		<polygon style="fill:#DD6F50;" points="307.801,96.685 307.727,96.685 306.861,96.685 306.777,96.685 305.748,121.728 
			306.861,121.728 307.727,121.728 308.838,121.728 		"/>
		<g>
			<path style="fill:#DD6F50;" d="M307.291,122.552c-7.617,0-13.793,9.568-13.793,21.379h27.588
				C321.086,132.12,314.91,122.552,307.291,122.552z"/>
		</g>
		<g>
			<path style="fill:#DD6F50;" d="M307.291,121.064c-7.617,0-13.793,9.571-13.793,21.379h27.588
				C321.086,130.636,314.91,121.064,307.291,121.064z"/>
		</g>
		<rect x="293.498" y="143.931" style="fill:#FDD369;" width="27.588" height="21.946"/>
		<rect x="288.35" y="165.877" style="fill:#DD6F50;" width="37.887" height="28.527"/>
		<g>
			<g>
				<path style="fill:#FDBB15;" d="M305.809,150.302c0-2.511-2.041-4.551-4.557-4.551c-2.518,0-4.549,2.04-4.549,4.551l0.103,15.575
					h9.002V150.302z"/>
			</g>
			<g>
				<path style="fill:#FDC73F;" d="M305.805,151.398c0-2.3-1.801-4.167-4.02-4.167c-2.225,0-4.023,1.867-4.023,4.167l0.066,14.479
					h7.98L305.805,151.398z"/>
			</g>
		</g>
		<g>
			<g>
				<path style="fill:#FDBB15;" d="M317.879,150.302c0-2.511-2.033-4.551-4.547-4.551c-2.52,0-4.557,2.04-4.557,4.551l0.102,15.575
					h9.002V150.302z"/>
			</g>
			<g>
				<path style="fill:#FDC73F;" d="M317.879,151.398c0-2.3-1.801-4.167-4.023-4.167c-2.219,0-4.023,1.867-4.023,4.167l0.074,14.479
					h7.973V151.398z"/>
			</g>
		</g>
		<g>
			<g>
				<g>
					<path style="fill:#C5483A;" d="M300.301,176.433c0-2.519-2.043-4.555-4.553-4.555c-2.514,0-4.56,2.036-4.56,4.555l0.103,15.576
						h9.01V176.433z"/>
				</g>
			</g>
			<g>
				<path style="fill:#E58B72;" d="M300.297,177.532c0-2.304-1.799-4.175-4.027-4.175c-2.219,0-4.016,1.871-4.016,4.175
					l0.068,14.477h7.978L300.297,177.532z"/>
			</g>
		</g>
		<g>
			<g>
				<g>
					<path style="fill:#C5483A;" d="M311.846,176.433c0-2.519-2.039-4.555-4.555-4.555c-2.514,0-4.549,2.036-4.549,4.555
						l0.098,15.576h9.006V176.433z"/>
				</g>
			</g>
			<g>
				<path style="fill:#E58B72;" d="M311.846,177.532c0-2.304-1.805-4.175-4.023-4.175c-2.225,0-4.023,1.871-4.023,4.175
					l0.072,14.477h7.975V177.532z"/>
			</g>
		</g>
		<g>
			<g>
				<g>
					<path style="fill:#C5483A;" d="M323.357,176.433c0-2.519-2.035-4.555-4.555-4.555c-2.514,0-4.551,2.036-4.551,4.555
						l0.103,15.576h9.002V176.433z"/>
				</g>
			</g>
			<g>
				<path style="fill:#E58B72;" d="M323.357,177.532c0-2.304-1.803-4.175-4.025-4.175c-2.215,0-4.022,1.871-4.022,4.175
					l0.072,14.477h7.975V177.532z"/>
			</g>
		</g>
		<rect x="304.195" y="118.457" style="fill:#DD6F50;" width="6.199" height="6.53"/>
		<path style="fill:#D54C25;" d="M307.291,121.064c1.063,0,2.105,0.189,3.104,0.543v-1.491c-0.998-0.347-2.041-0.537-3.104-0.537
			c-1.068,0-2.102,0.19-3.096,0.537v1.491C305.189,121.254,306.223,121.064,307.291,121.064z"/>
		<g>
			<g>
				<rect x="288.35" y="160.029" style="fill:#FDBB15;" width="2.271" height="5.848"/>
				<rect x="292.803" y="160.029" style="fill:#FDBB15;" width="2.271" height="5.848"/>
				<rect x="297.254" y="160.029" style="fill:#FDBB15;" width="2.27" height="5.848"/>
				<rect x="301.701" y="160.029" style="fill:#FDBB15;" width="2.275" height="5.848"/>
				<rect x="306.154" y="160.029" style="fill:#FDBB15;" width="2.273" height="5.848"/>
				<rect x="310.607" y="160.029" style="fill:#FDBB15;" width="2.275" height="5.848"/>
				<rect x="315.057" y="160.029" style="fill:#FDBB15;" width="2.281" height="5.848"/>
				<rect x="319.512" y="160.029" style="fill:#FDBB15;" width="2.275" height="5.848"/>
				<rect x="323.965" y="160.029" style="fill:#FDBB15;" width="2.271" height="5.848"/>
			</g>
			<rect x="288.35" y="160.029" style="fill:#FDBB15;" width="37.887" height="1.082"/>
		</g>
		<rect x="288.35" y="194.404" style="fill:#FDD369;" width="37.887" height="17.66"/>
	</g>
	<g>
		<g>
			<g>
				<g>
					<g>
						<g>
							<path style="fill:#B1D4DD;" d="M297.279,223.841c0-2.991-2.42-5.416-5.412-5.416c-2.988,0-5.412,2.425-5.412,5.416
								l0.121,18.499h10.703V223.841z"/>
							<g>
								<g>
									<path style="fill:#C5483A;" d="M297.279,242.936h-10.703c-0.326,0-0.59-0.263-0.594-0.588l-0.121-18.508
										c0-3.318,2.695-6.01,6.006-6.01c3.309,0,6.006,2.691,6.006,6.01v18.499C297.873,242.671,297.609,242.936,297.279,242.936z
										 M287.172,241.749h9.51v-17.908c0-2.659-2.156-4.818-4.814-4.818c-2.658,0-4.816,2.159-4.816,4.818L287.172,241.749z"/>
								</g>
							</g>
						</g>
					</g>
				</g>
			</g>
			<rect x="291.271" y="218.425" style="fill:#C5483A;" width="1.197" height="23.915"/>
			<rect x="286.455" y="225.408" style="fill:#C5483A;" width="10.824" height="1.194"/>
			<rect x="286.455" y="230.508" style="fill:#C5483A;" width="10.824" height="1.192"/>
			<rect x="286.455" y="235.616" style="fill:#C5483A;" width="10.824" height="1.193"/>
		</g>
		<g>
			<g>
				<g>
					<g>
						<g>
							<path style="fill:#B1D4DD;" d="M312.705,223.841c0-2.991-2.422-5.416-5.41-5.416c-2.99,0-5.414,2.425-5.414,5.416
								l0.123,18.499h10.701V223.841z"/>
							<g>
								<g>
									<path style="fill:#C5483A;" d="M312.705,242.936h-10.701c-0.326,0-0.59-0.263-0.594-0.588l-0.121-18.508
										c0-3.318,2.693-6.01,6.006-6.01c3.307,0,6.004,2.691,6.004,6.01v18.499C313.299,242.671,313.035,242.936,312.705,242.936z
										 M302.598,241.749h9.51v-17.908c0-2.659-2.156-4.818-4.813-4.818c-2.66,0-4.818,2.159-4.818,4.818L302.598,241.749z"/>
								</g>
							</g>
						</g>
					</g>
				</g>
			</g>
			<rect x="306.697" y="218.425" style="fill:#C5483A;" width="1.199" height="23.915"/>
			<rect x="301.881" y="225.408" style="fill:#C5483A;" width="10.824" height="1.194"/>
			<rect x="301.881" y="230.508" style="fill:#C5483A;" width="10.824" height="1.192"/>
			<rect x="301.881" y="235.616" style="fill:#C5483A;" width="10.824" height="1.193"/>
		</g>
		<g>
			<g>
				<g>
					<g>
						<g>
							<path style="fill:#B1D4DD;" d="M328.133,223.841c0-2.991-2.422-5.416-5.414-5.416c-2.986,0-5.412,2.425-5.412,5.416
								l0.121,18.499h10.705V223.841z"/>
							<g>
								<g>
									<path style="fill:#C5483A;" d="M328.133,242.936h-10.705c-0.326,0-0.59-0.263-0.592-0.588l-0.123-18.508
										c0-3.318,2.697-6.01,6.006-6.01c3.309,0,6.006,2.691,6.006,6.01v18.499C328.725,242.671,328.461,242.936,328.133,242.936z
										 M318.023,241.749h9.51v-17.908c0-2.659-2.156-4.818-4.814-4.818c-2.658,0-4.816,2.159-4.816,4.818L318.023,241.749z"/>
								</g>
							</g>
						</g>
					</g>
				</g>
			</g>
			<rect x="322.125" y="218.425" style="fill:#C5483A;" width="1.197" height="23.915"/>
			<rect x="317.307" y="225.408" style="fill:#C5483A;" width="10.826" height="1.194"/>
			<rect x="317.307" y="230.508" style="fill:#C5483A;" width="10.826" height="1.192"/>
			<rect x="317.307" y="235.616" style="fill:#C5483A;" width="10.826" height="1.193"/>
		</g>
	</g>
	<rect x="278.461" y="208.504" style="fill:#E58B72;" width="57.377" height="5.144"/>
	<g>
		<rect x="378.049" y="158.266" style="fill:#FED1B6;" width="31.523" height="159.813"/>
		<rect x="405.172" y="158.266" style="fill:#FEC29E;" width="27.244" height="159.813"/>
		<polygon style="fill:#FED1B6;" points="378.049,158.266 391.814,135.693 405.172,158.266 		"/>
		<polygon style="fill:#6B4836;" points="432.416,158.266 405.172,158.266 391.814,135.693 419.328,135.693 		"/>
		<g>
			<rect x="409.244" y="135.729" style="fill:#FED1B6;" width="3.729" height="13.069"/>
			<rect x="412.973" y="135.729" style="fill:#FEC29E;" width="5.672" height="13.069"/>
			<rect x="408.098" y="132.27" style="fill:#FED1B6;" width="6.027" height="4.495"/>
			<rect x="414.125" y="132.27" style="fill:#FEC29E;" width="6.019" height="4.495"/>
			<rect x="412.973" y="136.765" style="fill:#FEB386;" width="5.672" height="0.814"/>
			<rect x="409.244" y="136.765" style="fill:#FEB386;" width="3.742" height="0.814"/>
		</g>
		<rect x="405.172" y="158.266" style="fill:#FEB386;" width="27.244" height="2.486"/>
		<g>
			<g>
				<rect x="408.309" y="165.604" style="fill:#C2C3C6;" width="7.725" height="13.289"/>
				<rect x="408.309" y="165.604" style="fill:#7F9D98;" width="6.557" height="12.118"/>
			</g>
			<g>
				<rect x="421.217" y="165.604" style="fill:#C2C3C6;" width="7.723" height="13.289"/>
				<rect x="421.217" y="165.604" style="fill:#7F9D98;" width="6.56" height="12.118"/>
			</g>
			<g>
				<rect x="408.537" y="187.078" style="fill:#C2C3C6;" width="7.721" height="13.297"/>
				<rect x="408.537" y="187.078" style="fill:#7F9D98;" width="6.561" height="12.129"/>
			</g>
			<g>
				<rect x="421.217" y="187.078" style="fill:#C2C3C6;" width="7.723" height="13.297"/>
				<rect x="421.217" y="187.078" style="fill:#7F9D98;" width="6.56" height="12.129"/>
			</g>
			<g>
				<rect x="408.59" y="206.003" style="fill:#C2C3C6;" width="7.729" height="13.299"/>
				<rect x="408.59" y="206.003" style="fill:#7F9D98;" width="6.561" height="12.124"/>
			</g>
			<g>
				<rect x="421.275" y="206.003" style="fill:#C2C3C6;" width="7.721" height="13.299"/>
				<rect x="421.275" y="206.003" style="fill:#7F9D98;" width="6.559" height="12.124"/>
			</g>
			<g>
				<rect x="408.652" y="224.926" style="fill:#C2C3C6;" width="7.723" height="13.296"/>
				<rect x="408.652" y="224.926" style="fill:#7F9D98;" width="6.563" height="12.135"/>
			</g>
			<g>
				<rect x="421.332" y="224.926" style="fill:#C2C3C6;" width="7.717" height="13.296"/>
				<rect x="421.332" y="224.926" style="fill:#7F9D98;" width="6.557" height="12.135"/>
			</g>
			<g>
				<rect x="408.705" y="243.852" style="fill:#C2C3C6;" width="7.727" height="13.298"/>
				<rect x="408.705" y="243.852" style="fill:#7F9D98;" width="6.557" height="12.137"/>
			</g>
			<g>
				<rect x="421.379" y="243.852" style="fill:#C2C3C6;" width="7.73" height="13.298"/>
				<rect x="421.379" y="243.852" style="fill:#7F9D98;" width="6.572" height="12.137"/>
			</g>
			<g>
				<rect x="408.766" y="262.774" style="fill:#C2C3C6;" width="7.717" height="13.304"/>
				<rect x="408.766" y="262.774" style="fill:#7F9D98;" width="6.563" height="12.133"/>
			</g>
			<g>
				<rect x="421.443" y="262.774" style="fill:#C2C3C6;" width="7.725" height="13.304"/>
				<rect x="421.443" y="262.774" style="fill:#7F9D98;" width="6.564" height="12.133"/>
			</g>
		</g>
		<g>
			<g>
				<rect x="408.766" y="282.67" style="fill:#C2C3C6;" width="7.717" height="13.305"/>
				<rect x="408.766" y="282.67" style="fill:#7F9D98;" width="6.563" height="12.133"/>
			</g>
			<g>
				<rect x="421.674" y="282.67" style="fill:#C2C3C6;" width="7.723" height="13.305"/>
				<rect x="421.674" y="282.67" style="fill:#7F9D98;" width="6.561" height="12.133"/>
			</g>
		</g>
		<g>
			<g>
				<rect x="393.754" y="282.67" style="fill:#C2C3C6;" width="7.715" height="13.305"/>
				<rect x="394.906" y="282.67" style="fill:#7F9D98;" width="6.563" height="12.133"/>
			</g>
			<g>
				<rect x="380.848" y="282.67" style="fill:#C2C3C6;" width="7.717" height="13.305"/>
				<rect x="382.008" y="282.67" style="fill:#7F9D98;" width="6.557" height="12.133"/>
			</g>
		</g>
		<g>
			<g>
				<rect x="394.316" y="165.604" style="fill:#C2C3C6;" width="7.727" height="13.289"/>
				<rect x="395.486" y="165.604" style="fill:#7F9D98;" width="6.557" height="12.118"/>
			</g>
			<g>
				<rect x="381.418" y="165.604" style="fill:#C2C3C6;" width="7.719" height="13.289"/>
				<rect x="382.576" y="165.604" style="fill:#7F9D98;" width="6.56" height="12.118"/>
			</g>
			<g>
				<rect x="394.092" y="187.078" style="fill:#C2C3C6;" width="7.717" height="13.297"/>
				<rect x="395.252" y="187.078" style="fill:#7F9D98;" width="6.557" height="12.129"/>
			</g>
			<g>
				<rect x="381.418" y="187.078" style="fill:#C2C3C6;" width="7.719" height="13.297"/>
				<rect x="382.576" y="187.078" style="fill:#7F9D98;" width="6.56" height="12.129"/>
			</g>
			<g>
				<rect x="394.035" y="206.003" style="fill:#C2C3C6;" width="7.721" height="13.299"/>
				<rect x="395.197" y="206.003" style="fill:#7F9D98;" width="6.559" height="12.124"/>
			</g>
			<g>
				<rect x="381.357" y="206.003" style="fill:#C2C3C6;" width="7.723" height="13.299"/>
				<rect x="382.516" y="206.003" style="fill:#7F9D98;" width="6.564" height="12.124"/>
			</g>
			<g>
				<rect x="393.977" y="224.926" style="fill:#C2C3C6;" width="7.723" height="13.296"/>
				<rect x="395.137" y="224.926" style="fill:#7F9D98;" width="6.563" height="12.135"/>
			</g>
			<g>
				<rect x="381.295" y="224.926" style="fill:#C2C3C6;" width="7.725" height="13.296"/>
				<rect x="382.457" y="224.926" style="fill:#7F9D98;" width="6.562" height="12.135"/>
			</g>
			<g>
				<rect x="393.914" y="243.852" style="fill:#C2C3C6;" width="7.73" height="13.298"/>
				<rect x="395.082" y="243.852" style="fill:#7F9D98;" width="6.562" height="12.137"/>
			</g>
			<g>
				<rect x="381.244" y="243.852" style="fill:#C2C3C6;" width="7.713" height="13.298"/>
				<rect x="382.398" y="243.852" style="fill:#7F9D98;" width="6.559" height="12.137"/>
			</g>
			<g>
				<rect x="393.865" y="262.774" style="fill:#C2C3C6;" width="7.719" height="13.304"/>
				<rect x="395.021" y="262.774" style="fill:#7F9D98;" width="6.563" height="12.133"/>
			</g>
			<g>
				<rect x="381.182" y="262.774" style="fill:#C2C3C6;" width="7.723" height="13.304"/>
				<rect x="382.344" y="262.774" style="fill:#7F9D98;" width="6.56" height="12.133"/>
			</g>
		</g>
		<rect x="377.992" y="306.086" style="fill:#80624D;" width="27.121" height="11.992"/>
		<rect x="405.113" y="306.086" style="fill:#744E3A;" width="27.244" height="11.992"/>
	</g>
	<g>
		<g>
			<path style="fill:#EEF5FF;" d="M379.959,70.759c-1.967-1.357-4.359-1.876-6.836-1.659c-0.926-5.168-5.656-9.106-11.371-9.106
				c-5.717,0-10.449,3.938-11.373,9.106c-2.475-0.217-4.865,0.302-6.834,1.659c-2.939,2.036-4.279,5.505-4.008,9.267h44.428
				C384.238,76.264,382.895,72.795,379.959,70.759z"/>
		</g>
		<g>
			<path style="fill:#EEF5FF;" d="M363.469,76.235V75.41c0-3.188-2.629-5.965-6.516-7.407c0.271-3.761-1.072-7.232-4.01-9.267
				c-1.963-1.363-4.355-1.875-6.832-1.66c-0.924-5.172-5.658-9.109-11.373-9.109c-5.715,0-10.447,3.938-11.373,9.109
				c-2.477-0.215-4.863,0.297-6.832,1.66c-2.939,2.034-4.281,5.506-4.006,9.267c-3.887,1.442-6.52,4.22-6.52,7.407v0.825
				c0,1.358,0.482,2.648,1.336,3.79h54.791C362.99,78.884,363.469,77.594,363.469,76.235z"/>
		</g>
		<path style="fill:#9FC9D5;" d="M366.475,75.41c0-3.188-2.631-5.965-6.514-7.407c0.199-2.778-0.48-5.393-2.035-7.393
			c-0.814,0.269-1.582,0.625-2.301,1.053c1.047,1.825,1.494,4.03,1.326,6.341c3.885,1.442,6.518,4.22,6.518,7.407v0.825
			c0,1.358-0.48,2.648-1.336,3.79h3.01c0.852-1.142,1.332-2.432,1.332-3.79V75.41z"/>
	</g>
	<g>
		<g>
			<path style="fill:#EEF5FF;" d="M248.666,49.356c-1.967-1.358-4.359-1.875-6.836-1.659c-0.926-5.168-5.656-9.107-11.371-9.107
				c-5.717,0-10.45,3.939-11.374,9.107c-2.475-0.216-4.863,0.301-6.832,1.659c-2.94,2.035-4.28,5.505-4.008,9.264h44.427
				C252.945,54.861,251.602,51.392,248.666,49.356z"/>
		</g>
		<g>
			<path style="fill:#EEF5FF;" d="M232.176,54.832v-0.824c0-3.189-2.63-5.966-6.516-7.408c0.271-3.76-1.073-7.233-4.01-9.269
				c-1.963-1.362-4.355-1.874-6.831-1.659c-0.925-5.17-5.659-9.109-11.373-9.109c-5.715,0-10.448,3.94-11.373,9.109
				c-2.476-0.215-4.864,0.297-6.834,1.659c-2.938,2.035-4.281,5.509-4.005,9.269c-3.886,1.442-6.52,4.219-6.52,7.408v0.824
				c0,1.36,0.481,2.648,1.335,3.788h54.793C231.696,57.48,232.176,56.192,232.176,54.832z"/>
		</g>
		<path style="fill:#9FC9D5;" d="M235.182,54.008c0-3.189-2.631-5.966-6.515-7.408c0.2-2.778-0.481-5.393-2.034-7.394
			c-0.814,0.27-1.583,0.626-2.302,1.052c1.049,1.826,1.493,4.03,1.326,6.342c3.886,1.442,6.519,4.219,6.519,7.408v0.824
			c0,1.36-0.483,2.648-1.336,3.788h3.008c0.854-1.14,1.334-2.428,1.334-3.788V54.008z"/>
	</g>
	<g>
		<g>
			<path style="fill:#EEF5FF;" d="M52.803,114.17c1.966-1.357,4.359-1.875,6.834-1.659c0.928-5.167,5.657-9.105,11.373-9.105
				c5.715,0,10.449,3.939,11.374,9.105c2.475-0.216,4.862,0.302,6.831,1.659c2.942,2.037,4.282,5.508,4.008,9.267H48.798
				C48.521,119.678,49.866,116.207,52.803,114.17z"/>
		</g>
		<g>
			<path style="fill:#EEF5FF;" d="M69.292,119.647v-0.826c0-3.186,2.629-5.964,6.516-7.405c-0.271-3.763,1.073-7.234,4.01-9.271
				c1.963-1.36,4.355-1.872,6.833-1.658c0.925-5.169,5.658-9.108,11.373-9.108c5.713,0,10.446,3.939,11.372,9.108
				c2.475-0.214,4.864,0.298,6.834,1.658c2.937,2.037,4.281,5.509,4.005,9.271c3.885,1.441,6.519,4.219,6.519,7.405v0.826
				c0,1.358-0.481,2.647-1.333,3.789H70.627C69.773,122.295,69.292,121.006,69.292,119.647z"/>
		</g>
		<path style="fill:#9FC9D5;" d="M66.286,118.821c0-3.186,2.63-5.964,6.514-7.405c-0.199-2.78,0.482-5.397,2.035-7.396
			c0.813,0.271,1.583,0.625,2.301,1.054c-1.048,1.826-1.494,4.028-1.327,6.342c-3.886,1.441-6.518,4.219-6.518,7.405v0.826
			c0,1.358,0.482,2.647,1.336,3.789H67.62c-0.854-1.142-1.334-2.431-1.334-3.789V118.821z"/>
	</g>
	<g>
		<g>
			<rect x="237.557" y="100.106" style="fill:#EEF5FF;" width="1.164" height="1.163"/>
			<g>
				<rect x="310.717" y="100.106" style="fill:#EEF5FF;" width="2.322" height="1.163"/>
				<rect x="315.361" y="100.106" style="fill:#EEF5FF;" width="2.322" height="1.163"/>
				<rect x="301.426" y="100.106" style="fill:#EEF5FF;" width="2.322" height="1.163"/>
				<rect x="306.07" y="100.106" style="fill:#EEF5FF;" width="2.322" height="1.163"/>
				<rect x="320.006" y="100.106" style="fill:#EEF5FF;" width="2.322" height="1.163"/>
				<rect x="296.781" y="100.106" style="fill:#EEF5FF;" width="2.324" height="1.163"/>
				<rect x="343.232" y="100.106" style="fill:#EEF5FF;" width="2.322" height="1.163"/>
				<rect x="347.877" y="100.106" style="fill:#EEF5FF;" width="2.322" height="1.163"/>
				<rect x="338.588" y="100.106" style="fill:#EEF5FF;" width="2.322" height="1.163"/>
				<rect x="324.65" y="100.106" style="fill:#EEF5FF;" width="2.324" height="1.163"/>
				<rect x="333.939" y="100.106" style="fill:#EEF5FF;" width="2.324" height="1.163"/>
				<rect x="329.297" y="100.106" style="fill:#EEF5FF;" width="2.322" height="1.163"/>
				<rect x="254.979" y="100.106" style="fill:#EEF5FF;" width="2.32" height="1.163"/>
				<rect x="250.332" y="100.106" style="fill:#EEF5FF;" width="2.324" height="1.163"/>
				<rect x="352.521" y="100.106" style="fill:#EEF5FF;" width="2.322" height="1.163"/>
				<rect x="241.041" y="100.106" style="fill:#EEF5FF;" width="2.322" height="1.163"/>
				<rect x="259.621" y="100.106" style="fill:#EEF5FF;" width="2.324" height="1.163"/>
				<rect x="245.688" y="100.106" style="fill:#EEF5FF;" width="2.322" height="1.163"/>
				<rect x="264.268" y="100.106" style="fill:#EEF5FF;" width="2.322" height="1.163"/>
				<rect x="287.49" y="100.106" style="fill:#EEF5FF;" width="2.322" height="1.163"/>
				<rect x="278.201" y="100.106" style="fill:#EEF5FF;" width="2.324" height="1.163"/>
				<rect x="292.139" y="100.106" style="fill:#EEF5FF;" width="2.322" height="1.163"/>
				<rect x="273.557" y="100.106" style="fill:#EEF5FF;" width="2.322" height="1.163"/>
				<rect x="268.912" y="100.106" style="fill:#EEF5FF;" width="2.324" height="1.163"/>
				<rect x="282.848" y="100.106" style="fill:#EEF5FF;" width="2.322" height="1.163"/>
				<rect x="426.84" y="100.106" style="fill:#EEF5FF;" width="2.324" height="1.163"/>
				<rect x="431.486" y="100.106" style="fill:#EEF5FF;" width="2.322" height="1.163"/>
				<rect x="440.777" y="100.106" style="fill:#EEF5FF;" width="2.32" height="1.163"/>
				<rect x="436.131" y="100.106" style="fill:#EEF5FF;" width="2.322" height="1.163"/>
				<rect x="412.906" y="100.106" style="fill:#EEF5FF;" width="2.32" height="1.163"/>
				<rect x="417.551" y="100.106" style="fill:#EEF5FF;" width="2.322" height="1.163"/>
				<rect x="422.195" y="100.106" style="fill:#EEF5FF;" width="2.322" height="1.163"/>
				<rect x="459.355" y="100.106" style="fill:#EEF5FF;" width="2.322" height="1.163"/>
				<rect x="445.422" y="100.106" style="fill:#EEF5FF;" width="2.322" height="1.163"/>
				<rect x="464" y="100.106" style="fill:#EEF5FF;" width="2.324" height="1.163"/>
				<rect x="450.066" y="100.106" style="fill:#EEF5FF;" width="2.32" height="1.163"/>
				<rect x="454.711" y="100.106" style="fill:#EEF5FF;" width="2.324" height="1.163"/>
				<rect x="380.393" y="100.106" style="fill:#EEF5FF;" width="2.322" height="1.163"/>
				<rect x="375.746" y="100.106" style="fill:#EEF5FF;" width="2.322" height="1.163"/>
				<rect x="371.103" y="100.106" style="fill:#EEF5FF;" width="2.322" height="1.163"/>
				<rect x="361.81" y="100.106" style="fill:#EEF5FF;" width="2.322" height="1.163"/>
				<rect x="366.457" y="100.106" style="fill:#EEF5FF;" width="2.322" height="1.163"/>
				<rect x="357.166" y="100.106" style="fill:#EEF5FF;" width="2.322" height="1.163"/>
				<rect x="398.971" y="100.106" style="fill:#EEF5FF;" width="2.324" height="1.163"/>
				<rect x="408.26" y="100.106" style="fill:#EEF5FF;" width="2.322" height="1.163"/>
				<rect x="403.615" y="100.106" style="fill:#EEF5FF;" width="2.322" height="1.163"/>
				<rect x="389.68" y="100.106" style="fill:#EEF5FF;" width="2.324" height="1.163"/>
				<rect x="394.326" y="100.106" style="fill:#EEF5FF;" width="2.322" height="1.163"/>
				<rect x="385.037" y="100.106" style="fill:#EEF5FF;" width="2.322" height="1.163"/>
			</g>
		</g>
	</g>
	<g>
		<rect x="88.409" y="168.352" style="fill:#FEE2BA;" width="71.382" height="149.886"/>
		<rect x="36.702" y="168.352" style="fill:#F0CFA5;" width="61.676" height="149.886"/>
		<polygon style="fill:#FEE2BA;" points="159.791,168.352 128.617,147.179 98.378,168.352 		"/>
		<polygon style="fill:#3B3648;" points="36.702,168.352 98.378,168.352 128.617,147.179 66.343,147.179 		"/>
		<g>
			<rect x="91.432" y="147.201" style="fill:#FED186;" width="2.772" height="12.265"/>
			<rect x="87.23" y="147.201" style="fill:#D4B36F;" width="4.202" height="12.265"/>
			<rect x="90.585" y="143.969" style="fill:#FEDA9E;" width="4.472" height="4.215"/>
			<rect x="86.119" y="143.969" style="fill:#D4B36F;" width="4.465" height="4.215"/>
			<rect x="87.23" y="148.184" style="fill:#9F8653;" width="4.202" height="0.753"/>
			<rect x="91.429" y="148.184" style="fill:#BF9D65;" width="2.774" height="0.753"/>
			<rect x="90.585" y="143.969" style="fill:#FEE3B6;" width="4.472" height="0.911"/>
			<rect x="86.119" y="143.969" style="fill:#BF9D65;" width="4.465" height="0.911"/>
		</g>
		<g>
			<rect x="68.38" y="147.201" style="fill:#FED186;" width="2.773" height="12.265"/>
			<rect x="64.184" y="147.201" style="fill:#D4B36F;" width="4.196" height="12.265"/>
			<rect x="67.538" y="143.969" style="fill:#FEDA9E;" width="4.467" height="4.215"/>
			<rect x="63.072" y="143.969" style="fill:#D4B36F;" width="4.466" height="4.215"/>
			<rect x="64.184" y="148.184" style="fill:#9F8653;" width="4.196" height="0.753"/>
			<rect x="68.38" y="148.184" style="fill:#BF9D65;" width="2.773" height="0.753"/>
			<rect x="67.538" y="143.969" style="fill:#FEE3B6;" width="4.467" height="0.911"/>
			<rect x="63.072" y="143.969" style="fill:#BF9D65;" width="4.466" height="0.911"/>
		</g>
		<rect x="36.702" y="168.352" style="fill:#E8C696;" width="61.676" height="2.33"/>
		<g>
			<g>
				<g>
					<rect x="117.423" y="176.163" style="fill:#C2C3C6;" width="8.254" height="12.465"/>
					<rect x="118.668" y="176.163" style="fill:#7F9D98;" width="7.009" height="11.367"/>
				</g>
				<g>
					<rect x="103.634" y="176.163" style="fill:#C2C3C6;" width="8.249" height="12.465"/>
					<rect x="104.876" y="176.163" style="fill:#7F9D98;" width="7.007" height="11.367"/>
				</g>
				<g>
					<rect x="117.18" y="196.306" style="fill:#C2C3C6;" width="8.25" height="12.47"/>
					<rect x="118.417" y="196.306" style="fill:#7F9D98;" width="7.014" height="11.374"/>
				</g>
				<g>
					<rect x="103.634" y="196.306" style="fill:#C2C3C6;" width="8.249" height="12.47"/>
					<rect x="104.876" y="196.306" style="fill:#7F9D98;" width="7.007" height="11.374"/>
				</g>
				<g>
					<rect x="117.121" y="214.059" style="fill:#C2C3C6;" width="8.252" height="12.469"/>
					<rect x="118.359" y="214.059" style="fill:#7F9D98;" width="7.014" height="11.375"/>
				</g>
				<g>
					<rect x="103.57" y="214.059" style="fill:#C2C3C6;" width="8.252" height="12.469"/>
					<rect x="104.81" y="214.059" style="fill:#7F9D98;" width="7.012" height="11.375"/>
				</g>
				<g>
					<rect x="117.064" y="231.807" style="fill:#C2C3C6;" width="8.247" height="12.471"/>
					<rect x="118.304" y="231.807" style="fill:#7F9D98;" width="7.007" height="11.368"/>
				</g>
				<g>
					<rect x="103.513" y="231.807" style="fill:#C2C3C6;" width="8.253" height="12.471"/>
					<rect x="104.752" y="231.807" style="fill:#7F9D98;" width="7.013" height="11.368"/>
				</g>
				<g>
					<rect x="116.998" y="249.556" style="fill:#C2C3C6;" width="8.25" height="12.473"/>
					<rect x="118.242" y="249.556" style="fill:#7F9D98;" width="7.006" height="11.373"/>
				</g>
				<g>
					<rect x="103.45" y="249.556" style="fill:#C2C3C6;" width="8.252" height="12.473"/>
					<rect x="104.692" y="249.556" style="fill:#7F9D98;" width="7.01" height="11.373"/>
				</g>
				<g>
					<rect x="116.937" y="267.313" style="fill:#C2C3C6;" width="8.249" height="12.466"/>
					<rect x="118.173" y="267.313" style="fill:#7F9D98;" width="7.013" height="11.372"/>
				</g>
				<g>
					<rect x="103.394" y="267.313" style="fill:#C2C3C6;" width="8.247" height="12.466"/>
					<rect x="104.633" y="267.313" style="fill:#7F9D98;" width="7.007" height="11.372"/>
				</g>
			</g>
			<g>
				<g>
					<rect x="116.937" y="285.969" style="fill:#C2C3C6;" width="8.249" height="12.471"/>
					<rect x="118.173" y="285.969" style="fill:#7F9D98;" width="7.013" height="11.37"/>
				</g>
				<g>
					<rect x="103.146" y="285.969" style="fill:#C2C3C6;" width="8.248" height="12.471"/>
					<rect x="104.386" y="285.969" style="fill:#7F9D98;" width="7.007" height="11.37"/>
				</g>
			</g>
			<g>
				<g>
					<rect x="132.982" y="285.969" style="fill:#C2C3C6;" width="8.249" height="12.471"/>
					<rect x="132.982" y="285.969" style="fill:#7F9D98;" width="7.006" height="11.37"/>
				</g>
				<g>
					<rect x="146.77" y="285.969" style="fill:#C2C3C6;" width="8.252" height="12.471"/>
					<rect x="146.77" y="285.969" style="fill:#7F9D98;" width="7.008" height="11.37"/>
				</g>
			</g>
			<g>
				<g>
					<rect x="132.372" y="176.163" style="fill:#C2C3C6;" width="8.246" height="12.465"/>
					<rect x="132.372" y="176.163" style="fill:#7F9D98;" width="7.008" height="11.367"/>
				</g>
				<g>
					<rect x="146.163" y="176.163" style="fill:#C2C3C6;" width="8.248" height="12.465"/>
					<rect x="146.163" y="176.163" style="fill:#7F9D98;" width="7.009" height="11.367"/>
				</g>
				<g>
					<rect x="132.616" y="196.306" style="fill:#C2C3C6;" width="8.246" height="12.47"/>
					<rect x="132.616" y="196.306" style="fill:#7F9D98;" width="7.01" height="11.374"/>
				</g>
				<g>
					<rect x="146.163" y="196.306" style="fill:#C2C3C6;" width="8.248" height="12.47"/>
					<rect x="146.163" y="196.306" style="fill:#7F9D98;" width="7.009" height="11.374"/>
				</g>
				<g>
					<rect x="132.671" y="214.059" style="fill:#C2C3C6;" width="8.26" height="12.469"/>
					<rect x="132.671" y="214.059" style="fill:#7F9D98;" width="7.013" height="11.375"/>
				</g>
				<g>
					<rect x="146.223" y="214.059" style="fill:#C2C3C6;" width="8.254" height="12.469"/>
					<rect x="146.223" y="214.059" style="fill:#7F9D98;" width="7.012" height="11.375"/>
				</g>
				<g>
					<rect x="132.739" y="231.807" style="fill:#C2C3C6;" width="8.25" height="12.471"/>
					<rect x="132.739" y="231.807" style="fill:#7F9D98;" width="7.007" height="11.368"/>
				</g>
				<g>
					<rect x="146.286" y="231.807" style="fill:#C2C3C6;" width="8.251" height="12.471"/>
					<rect x="146.286" y="231.807" style="fill:#7F9D98;" width="7.01" height="11.368"/>
				</g>
				<g>
					<rect x="132.798" y="249.556" style="fill:#C2C3C6;" width="8.249" height="12.473"/>
					<rect x="132.798" y="249.556" style="fill:#7F9D98;" width="7.014" height="11.373"/>
				</g>
				<g>
					<rect x="146.343" y="249.556" style="fill:#C2C3C6;" width="8.253" height="12.473"/>
					<rect x="146.343" y="249.556" style="fill:#7F9D98;" width="7.015" height="11.373"/>
				</g>
				<g>
					<rect x="132.866" y="267.313" style="fill:#C2C3C6;" width="8.238" height="12.466"/>
					<rect x="132.866" y="267.313" style="fill:#7F9D98;" width="7.006" height="11.372"/>
				</g>
				<g>
					<rect x="146.41" y="267.313" style="fill:#C2C3C6;" width="8.248" height="12.466"/>
					<rect x="146.41" y="267.313" style="fill:#7F9D98;" width="7.007" height="11.372"/>
				</g>
			</g>
		</g>
		<g>
			<g>
				<g>
					<rect x="71.069" y="176.163" style="fill:#C2C3C6;" width="8.247" height="12.465"/>
					<rect x="71.069" y="176.163" style="fill:#7F9D98;" width="7.009" height="11.367"/>
				</g>
				<g>
					<rect x="84.859" y="176.163" style="fill:#C2C3C6;" width="8.248" height="12.465"/>
					<rect x="84.859" y="176.163" style="fill:#7F9D98;" width="7.013" height="11.367"/>
				</g>
				<g>
					<rect x="71.313" y="196.306" style="fill:#C2C3C6;" width="8.25" height="12.47"/>
					<rect x="71.313" y="196.306" style="fill:#7F9D98;" width="7.008" height="11.374"/>
				</g>
				<g>
					<rect x="84.859" y="196.306" style="fill:#C2C3C6;" width="8.248" height="12.47"/>
					<rect x="84.859" y="196.306" style="fill:#7F9D98;" width="7.013" height="11.374"/>
				</g>
				<g>
					<rect x="71.37" y="214.059" style="fill:#C2C3C6;" width="8.257" height="12.469"/>
					<rect x="71.37" y="214.059" style="fill:#7F9D98;" width="7.016" height="11.375"/>
				</g>
				<g>
					<rect x="84.922" y="214.059" style="fill:#C2C3C6;" width="8.248" height="12.469"/>
					<rect x="84.922" y="214.059" style="fill:#7F9D98;" width="7.008" height="11.375"/>
				</g>
				<g>
					<rect x="71.434" y="231.807" style="fill:#C2C3C6;" width="8.252" height="12.471"/>
					<rect x="71.434" y="231.807" style="fill:#7F9D98;" width="7.01" height="11.368"/>
				</g>
				<g>
					<rect x="84.982" y="231.807" style="fill:#C2C3C6;" width="8.25" height="12.471"/>
					<rect x="84.982" y="231.807" style="fill:#7F9D98;" width="7.004" height="11.368"/>
				</g>
				<g>
					<rect x="71.496" y="249.556" style="fill:#C2C3C6;" width="8.252" height="12.473"/>
					<rect x="71.496" y="249.556" style="fill:#7F9D98;" width="7.005" height="11.373"/>
				</g>
				<g>
					<rect x="85.04" y="249.556" style="fill:#C2C3C6;" width="8.252" height="12.473"/>
					<rect x="85.04" y="249.556" style="fill:#7F9D98;" width="7.014" height="11.373"/>
				</g>
				<g>
					<rect x="71.556" y="267.313" style="fill:#C2C3C6;" width="8.248" height="12.466"/>
					<rect x="71.556" y="267.313" style="fill:#7F9D98;" width="7.009" height="11.372"/>
				</g>
				<g>
					<rect x="85.102" y="267.313" style="fill:#C2C3C6;" width="8.253" height="12.466"/>
					<rect x="85.102" y="267.313" style="fill:#7F9D98;" width="7.012" height="11.372"/>
				</g>
			</g>
			<g>
				<g>
					<rect x="71.556" y="285.969" style="fill:#C2C3C6;" width="8.248" height="12.471"/>
					<rect x="71.556" y="285.969" style="fill:#7F9D98;" width="7.009" height="11.37"/>
				</g>
				<g>
					<rect x="85.349" y="285.969" style="fill:#C2C3C6;" width="8.253" height="12.471"/>
					<rect x="85.349" y="285.969" style="fill:#7F9D98;" width="7.011" height="11.37"/>
				</g>
			</g>
			<g>
				<g>
					<rect x="55.512" y="285.969" style="fill:#C2C3C6;" width="8.254" height="12.471"/>
					<rect x="56.756" y="285.969" style="fill:#7F9D98;" width="7.011" height="11.37"/>
				</g>
				<g>
					<rect x="41.72" y="285.969" style="fill:#C2C3C6;" width="8.252" height="12.471"/>
					<rect x="42.967" y="285.969" style="fill:#7F9D98;" width="7.005" height="11.37"/>
				</g>
			</g>
			<g>
				<g>
					<rect x="56.117" y="176.163" style="fill:#C2C3C6;" width="8.258" height="12.465"/>
					<rect x="57.362" y="176.163" style="fill:#7F9D98;" width="7.014" height="11.367"/>
				</g>
				<g>
					<rect x="42.333" y="176.163" style="fill:#C2C3C6;" width="8.252" height="12.465"/>
					<rect x="43.57" y="176.163" style="fill:#7F9D98;" width="7.015" height="11.367"/>
				</g>
				<g>
					<rect x="55.878" y="196.306" style="fill:#C2C3C6;" width="8.25" height="12.47"/>
					<rect x="57.117" y="196.306" style="fill:#7F9D98;" width="7.012" height="11.374"/>
				</g>
				<g>
					<rect x="42.333" y="196.306" style="fill:#C2C3C6;" width="8.252" height="12.47"/>
					<rect x="43.57" y="196.306" style="fill:#7F9D98;" width="7.015" height="11.374"/>
				</g>
				<g>
					<rect x="55.815" y="214.059" style="fill:#C2C3C6;" width="8.256" height="12.469"/>
					<rect x="57.059" y="214.059" style="fill:#7F9D98;" width="7.013" height="11.375"/>
				</g>
				<g>
					<rect x="42.268" y="214.059" style="fill:#C2C3C6;" width="8.258" height="12.469"/>
					<rect x="43.508" y="214.059" style="fill:#7F9D98;" width="7.018" height="11.375"/>
				</g>
				<g>
					<rect x="55.752" y="231.807" style="fill:#C2C3C6;" width="8.256" height="12.471"/>
					<rect x="56.997" y="231.807" style="fill:#7F9D98;" width="7.011" height="11.368"/>
				</g>
				<g>
					<rect x="42.211" y="231.807" style="fill:#C2C3C6;" width="8.24" height="12.471"/>
					<rect x="43.45" y="231.807" style="fill:#7F9D98;" width="7.001" height="11.368"/>
				</g>
				<g>
					<rect x="55.689" y="249.556" style="fill:#C2C3C6;" width="8.259" height="12.473"/>
					<rect x="56.933" y="249.556" style="fill:#7F9D98;" width="7.016" height="11.373"/>
				</g>
				<g>
					<rect x="42.143" y="249.556" style="fill:#C2C3C6;" width="8.257" height="12.473"/>
					<rect x="43.389" y="249.556" style="fill:#7F9D98;" width="7.011" height="11.373"/>
				</g>
				<g>
					<rect x="55.632" y="267.313" style="fill:#C2C3C6;" width="8.249" height="12.466"/>
					<rect x="56.875" y="267.313" style="fill:#7F9D98;" width="7.006" height="11.372"/>
				</g>
				<g>
					<rect x="42.085" y="267.313" style="fill:#C2C3C6;" width="8.252" height="12.466"/>
					<rect x="43.326" y="267.313" style="fill:#7F9D98;" width="7.011" height="11.372"/>
				</g>
			</g>
		</g>
		<rect x="98.499" y="306.99" style="fill:#625E6D;" width="61.417" height="11.247"/>
		<rect x="36.823" y="306.99" style="fill:#3B3648;" width="61.676" height="11.247"/>
		<g>
			<path style="fill:#F0CFA5;" d="M122.664,161.585c0,3.618,2.929,6.541,6.543,6.541c3.613,0,6.538-2.923,6.538-6.541
				c0-3.608-2.925-6.54-6.538-6.54C125.593,155.045,122.664,157.977,122.664,161.585z"/>
			<g>
				<g>
					<path style="fill:#E8C696;" d="M132.713,161.585c0-3.088-2.147-5.672-5.026-6.359c0.492-0.112,0.994-0.181,1.521-0.181
						c3.613,0,6.538,2.932,6.538,6.54c0,3.618-2.925,6.541-6.538,6.541c-0.527,0-1.029-0.054-1.521-0.172
						C130.565,167.269,132.713,164.676,132.713,161.585z"/>
				</g>
			</g>
		</g>
	</g>
	<g>
		<g>
			<rect x="210.366" y="282.561" style="fill:#FFFFFF;" width="41.862" height="41.675"/>
			<rect x="244.611" y="282.561" style="fill:#F0ECE1;" width="47.188" height="41.675"/>
			<polygon style="fill:#FFFFFF;" points="210.366,282.561 227.891,256.603 244.611,282.561 			"/>
			<polygon style="fill:#6B4836;" points="291.799,282.561 244.611,282.561 227.891,256.603 273.119,256.603 			"/>
			<g>
				<rect x="259.639" y="253.135" style="fill:#FFFFFF;" width="4.57" height="12.979"/>
				<rect x="264.209" y="253.135" style="fill:#F0ECE1;" width="6.941" height="12.979"/>
				<rect x="258.238" y="249.703" style="fill:#FFFFFF;" width="7.373" height="4.465"/>
				<rect x="265.611" y="249.703" style="fill:#F0ECE1;" width="7.375" height="4.465"/>
				<rect x="264.209" y="254.168" style="fill:#CFD0BC;" width="6.941" height="0.805"/>
				<rect x="259.639" y="254.168" style="fill:#CFD0BC;" width="4.578" height="0.805"/>
			</g>
			<rect x="244.611" y="282.561" style="fill:#CFD0BC;" width="47.188" height="2.862"/>
			<rect x="210.366" y="318.02" style="fill:#907161;" width="34.245" height="14.352"/>
			<rect x="244.611" y="318.02" style="fill:#6B4836;" width="47.188" height="14.352"/>
		</g>
		<g>
			<rect x="247.898" y="293.978" style="fill:#FFFFFF;" width="10.475" height="18.035"/>
			<rect x="247.898" y="293.978" style="fill:#CFD0BC;" width="8.904" height="16.452"/>
		</g>
		<g>
			<rect x="262.967" y="294.379" style="fill:#FFFFFF;" width="10.473" height="18.043"/>
			<rect x="262.967" y="294.379" style="fill:#CFD0BC;" width="8.9" height="16.447"/>
		</g>
		<g>
			<rect x="278.043" y="294.379" style="fill:#FFFFFF;" width="10.48" height="18.043"/>
			<rect x="278.043" y="294.379" style="fill:#CFD0BC;" width="8.898" height="16.447"/>
		</g>
		<g>
			<g>
				<path style="fill:#CFD0BC;" d="M232.756,310.152c0-3.591-2.908-6.498-6.5-6.498c-3.59,0-6.497,2.907-6.497,6.498l0.139,22.237
					h12.858V310.152z"/>
			</g>
			<g>
				<path style="fill:#F0ECE1;" d="M232.754,311.725c0-3.294-2.572-5.954-5.743-5.954c-3.175,0-5.743,2.66-5.743,5.954l0.1,20.665
					h11.387L232.754,311.725z"/>
			</g>
		</g>
		<g>
			<path style="fill:#F0ECE1;" d="M230.752,276.896c0,2.482-2.016,4.494-4.497,4.494c-2.482,0-4.494-2.013-4.494-4.494
				c0-2.484,2.012-4.493,4.494-4.493C228.736,272.402,230.752,274.411,230.752,276.896z"/>
			<g>
				<path style="fill:#CFD0BC;" d="M223.847,276.896c0-2.122,1.474-3.901,3.451-4.368c-0.333-0.087-0.686-0.125-1.042-0.125
					c-2.482,0-4.494,2.009-4.494,4.493c0,2.482,2.012,4.494,4.494,4.494c0.356,0,0.709-0.04,1.042-0.125
					C225.32,280.792,223.847,279.014,223.847,276.896z"/>
			</g>
		</g>
	</g>
	<g>
		<g>
			<rect x="94.385" y="284.224" style="fill:#FFFFFF;" width="43.494" height="43.292"/>
			<rect x="53.275" y="284.224" style="fill:#F0ECE1;" width="49.024" height="43.292"/>
			<polygon style="fill:#FFFFFF;" points="137.879,284.224 119.672,257.254 102.299,284.224 			"/>
			<polygon style="fill:#C44836;" points="53.275,284.224 102.299,284.224 119.672,257.254 72.68,257.254 			"/>
			<g>
				<rect x="81.938" y="253.651" style="fill:#FFFFFF;" width="4.746" height="13.485"/>
				<rect x="74.729" y="253.651" style="fill:#F0ECE1;" width="7.209" height="13.485"/>
				<rect x="80.481" y="250.086" style="fill:#FFFFFF;" width="7.664" height="4.639"/>
				<rect x="72.82" y="250.086" style="fill:#F0ECE1;" width="7.662" height="4.639"/>
				<rect x="74.729" y="254.725" style="fill:#CFD0BC;" width="7.209" height="0.831"/>
				<rect x="81.93" y="254.725" style="fill:#CFD0BC;" width="4.755" height="0.831"/>
			</g>
			<rect x="53.275" y="284.224" style="fill:#CFD0BC;" width="49.024" height="2.974"/>
			<rect x="102.299" y="321.06" style="fill:#D47161;" width="35.58" height="14.91"/>
			<rect x="53.275" y="321.06" style="fill:#C44836;" width="49.024" height="14.91"/>
		</g>
		<g>
			<rect x="88.002" y="296.083" style="fill:#FFFFFF;" width="10.881" height="18.738"/>
			<rect x="89.635" y="296.083" style="fill:#CFD0BC;" width="9.249" height="17.094"/>
		</g>
		<g>
			<rect x="72.35" y="296.502" style="fill:#FFFFFF;" width="10.88" height="18.743"/>
			<rect x="73.983" y="296.502" style="fill:#CFD0BC;" width="9.247" height="17.085"/>
		</g>
		<g>
			<rect x="56.678" y="296.502" style="fill:#FFFFFF;" width="10.888" height="18.743"/>
			<rect x="58.321" y="296.502" style="fill:#CFD0BC;" width="9.245" height="17.085"/>
		</g>
		<g>
			<g>
				<path style="fill:#CFD0BC;" d="M114.618,312.887c0-3.729,3.019-6.749,6.752-6.749c3.73,0,6.75,3.02,6.75,6.749l-0.148,23.107
					h-13.354V312.887z"/>
			</g>
			<g>
				<path style="fill:#F0ECE1;" d="M114.62,314.522c0-3.425,2.671-6.186,5.967-6.186c3.295,0,5.964,2.761,5.964,6.186l-0.104,21.472
					h-11.83L114.62,314.522z"/>
			</g>
		</g>
		<g>
			<path style="fill:#F0ECE1;" d="M116.698,278.336c0,2.578,2.094,4.67,4.672,4.67c2.579,0,4.668-2.092,4.668-4.67
				c0-2.583-2.089-4.665-4.668-4.665C118.792,273.671,116.698,275.753,116.698,278.336z"/>
			<g>
				<path style="fill:#CFD0BC;" d="M123.873,278.336c0-2.205-1.531-4.052-3.588-4.539c0.349-0.09,0.715-0.126,1.085-0.126
					c2.579,0,4.668,2.082,4.668,4.665c0,2.578-2.089,4.67-4.668,4.67c-0.37,0-0.736-0.044-1.085-0.131
					C122.342,282.382,123.873,280.539,123.873,278.336z"/>
			</g>
		</g>
	</g>
	<g>
		<polygon style="fill:#E6E6E6;" points="196.164,100.688 215.079,91.841 215.085,92.558 209.686,100.599 		"/>
		<g>
			<path style="fill:#FFFFFF;" d="M201.767,105.331l12.636-0.082l-0.042-6.372l-34.168,0.239c-4.662,0.027-6.764,2.246-7.23,2.519
				c-0.571,0.329-2.283,0.678-2.985,1.819C169.887,103.768,167.384,108.439,201.767,105.331z"/>
			<g>
				<path style="fill:#FFFFFF;" d="M243.205,98.683l-5.141,0.033l-24.853,0.17l1.191,6.363l19.813-0.141
					c3.656-1.576,7.31-3.286,7.806-3.713L243.205,98.683z"/>
				<path style="fill:#E6E6E6;" d="M214.424,108.112l12.065-0.085c0.687-0.003,4.207-1.401,7.726-2.919l-20.504,0.12
					L214.424,108.112z"/>
			</g>
			<path style="fill:#E6E6E6;" d="M180.685,108.348l33.739-0.235l1.43-2.903l-14.087,0.122c-6.355,0.048-12.766,0.169-17.019,0.119
				c-15.022-0.171-14.768-1.994-14.77-1.996C168.455,105.361,173.064,108.398,180.685,108.348z"/>
		</g>
		<polygon style="fill:#FFFFFF;" points="238.164,99.362 242.498,86.592 238.299,86.619 227.045,99.461 		"/>
		<polygon style="fill:#E6E6E6;" points="229.172,102.884 238.186,107.926 241.807,107.895 241.801,107.363 236.223,102.746 		"/>
		<g>
			<g>
				<path style="fill:#FFFFFF;" d="M197.496,105.794c-0.667,0.002-1.299,0.056-1.882,0.154l0.016,2.37l8.464-0.059l-0.011-1.561
					C203.122,106.27,199.952,105.771,197.496,105.794z"/>
			</g>
			<g>
				<path style="fill:#FFFFFF;" d="M197.531,110.821c-0.665,0.006-1.301-0.044-1.885-0.131l-0.017-2.549l8.464,0.118l0.01,1.56
					C203.145,110.259,199.985,110.805,197.531,110.821z"/>
			</g>
		</g>
		<path style="fill:#8DA6C7;" d="M185.124,103.577c0.002,0.101-0.082,0.186-0.19,0.186l-0.397,0.004
			c-0.104,0.001-0.191-0.085-0.191-0.189l-0.004-0.601c0-0.102,0.086-0.189,0.188-0.189l0.403-0.003
			c0.103,0,0.186,0.085,0.187,0.189L185.124,103.577z"/>
		<path style="fill:#8DA6C7;" d="M186.942,103.559c0.004,0.107-0.082,0.19-0.188,0.19l-0.398,0.003
			c-0.102,0.002-0.189-0.082-0.189-0.187l-0.003-0.599c0-0.107,0.081-0.19,0.187-0.193h0.399c0.104-0.002,0.189,0.08,0.191,0.187
			L186.942,103.559z"/>
		<path style="fill:#8DA6C7;" d="M188.764,103.549c0.003,0.104-0.081,0.188-0.184,0.188l-0.403,0.004
			c-0.102,0.002-0.189-0.08-0.189-0.188l-0.003-0.601c0-0.104,0.084-0.188,0.188-0.189l0.397-0.002c0.105,0,0.191,0.081,0.191,0.187
			L188.764,103.549z"/>
		<path style="fill:#8DA6C7;" d="M190.586,103.535c0.001,0.103-0.083,0.189-0.187,0.189l-0.402,0.005
			c-0.102,0-0.189-0.087-0.189-0.188l-0.001-0.602c-0.003-0.104,0.081-0.189,0.185-0.193h0.401c0.104,0,0.188,0.082,0.19,0.185
			L190.586,103.535z"/>
		<path style="fill:#8DA6C7;" d="M192.407,103.52c0.001,0.106-0.083,0.191-0.187,0.191l-0.401,0.004
			c-0.104,0-0.186-0.084-0.19-0.188l-0.002-0.598c0-0.104,0.081-0.19,0.188-0.19l0.4-0.006c0.104,0,0.188,0.083,0.189,0.188
			L192.407,103.52z"/>
		<path style="fill:#8DA6C7;" d="M194.229,103.51c0,0.105-0.083,0.188-0.186,0.191h-0.401c-0.106,0.001-0.188-0.085-0.189-0.186
			l-0.003-0.601c-0.003-0.106,0.082-0.191,0.184-0.194l0.402,0.002c0.102-0.002,0.189,0.081,0.189,0.184L194.229,103.51z"/>
		<path style="fill:#8DA6C7;" d="M196.048,103.495c0,0.106-0.081,0.192-0.186,0.192l-0.399,0.003c-0.105,0-0.188-0.083-0.191-0.188
			l-0.005-0.602c0.005-0.105,0.084-0.188,0.189-0.188l0.403-0.004c0.103-0.001,0.188,0.085,0.188,0.189L196.048,103.495z"/>
		<path style="fill:#8DA6C7;" d="M197.869,103.482c0.003,0.104-0.08,0.19-0.188,0.19l-0.396,0.005
			c-0.107,0.001-0.189-0.083-0.192-0.19l-0.002-0.597c0-0.106,0.085-0.191,0.186-0.191l0.402-0.004c0.106,0,0.189,0.084,0.189,0.188
			L197.869,103.482z"/>
		<path style="fill:#8DA6C7;" d="M199.69,103.474c0,0.104-0.083,0.188-0.186,0.188l-0.401,0.005c-0.102,0-0.186-0.085-0.188-0.191
			l-0.002-0.6c-0.002-0.104,0.084-0.188,0.186-0.188l0.399-0.004c0.104,0,0.191,0.08,0.191,0.189L199.69,103.474z"/>
		<path style="fill:#8DA6C7;" d="M201.515,103.462c-0.004,0.101-0.083,0.185-0.189,0.185l-0.398,0.001
			c-0.106,0.006-0.191-0.077-0.191-0.184l-0.004-0.603c0-0.101,0.083-0.187,0.188-0.187l0.4-0.006c0.104,0,0.188,0.081,0.188,0.19
			L201.515,103.462z"/>
		<path style="fill:#8DA6C7;" d="M203.333,103.447c0.002,0.103-0.081,0.188-0.185,0.19h-0.401c-0.103,0-0.189-0.08-0.191-0.184
			l-0.003-0.604c0-0.104,0.08-0.189,0.186-0.189l0.401-0.005c0.103,0.002,0.189,0.084,0.189,0.188L203.333,103.447z"/>
		<path style="fill:#8DA6C7;" d="M205.155,103.432c0,0.104-0.084,0.191-0.186,0.192l-0.402,0.002c-0.104,0-0.189-0.08-0.189-0.187
			l-0.003-0.6c0-0.107,0.082-0.189,0.187-0.189l0.399-0.006c0.106,0,0.191,0.083,0.191,0.189L205.155,103.432z"/>
		<path style="fill:#8DA6C7;" d="M206.977,103.422c0.001,0.104-0.084,0.188-0.188,0.192h-0.401c-0.104,0-0.187-0.085-0.19-0.185
			l-0.001-0.603c0-0.106,0.083-0.191,0.185-0.192l0.403-0.003c0.102,0,0.188,0.085,0.187,0.188L206.977,103.422z"/>
		<path style="fill:#8DA6C7;" d="M208.798,103.41c0,0.104-0.084,0.189-0.187,0.189h-0.401c-0.105,0.002-0.189-0.081-0.189-0.185
			l-0.006-0.6c0-0.106,0.083-0.191,0.188-0.191l0.402-0.003c0.102-0.002,0.188,0.086,0.188,0.188L208.798,103.41z"/>
		<path style="fill:#8DA6C7;" d="M210.62,103.397c0,0.104-0.085,0.185-0.188,0.187l-0.4,0.002c-0.105,0-0.19-0.079-0.19-0.181
			l-0.008-0.602c0.002-0.108,0.085-0.193,0.191-0.193l0.399-0.002c0.104-0.003,0.189,0.084,0.189,0.186L210.62,103.397z"/>
		<path style="fill:#8DA6C7;" d="M212.44,103.386c0.003,0.101-0.085,0.187-0.187,0.187l-0.401,0.005
			c-0.102,0-0.188-0.082-0.189-0.189l-0.006-0.601c0-0.103,0.085-0.191,0.188-0.188l0.404-0.004
			c0.102-0.002,0.186,0.081,0.186,0.188L212.44,103.386z"/>
		<path style="fill:#8DA6C7;" d="M214.263,103.371c0,0.104-0.083,0.189-0.189,0.188l-0.4,0.004c-0.104,0-0.187-0.081-0.187-0.188
			l-0.01-0.602c0.004-0.104,0.086-0.188,0.189-0.188l0.401-0.006c0.104-0.001,0.19,0.082,0.19,0.19L214.263,103.371z"/>
		<path style="fill:#8DA6C7;" d="M216.08,103.357c0,0.104-0.08,0.191-0.185,0.191l-0.4,0.002c-0.105,0-0.192-0.081-0.192-0.188
			l-0.004-0.6c0.001-0.105,0.084-0.189,0.186-0.192l0.404-0.003c0.102,0,0.188,0.084,0.188,0.191L216.08,103.357z"/>
		<path style="fill:#8DA6C7;" d="M217.905,103.344c0,0.105-0.084,0.19-0.19,0.19l-0.4,0.001c-0.103,0.006-0.189-0.079-0.189-0.184
			l-0.007-0.602c0.001-0.105,0.088-0.189,0.191-0.189l0.4-0.004c0.105,0,0.19,0.083,0.19,0.188L217.905,103.344z"/>
		<path style="fill:#8DA6C7;" d="M219.725,103.333c0.002,0.103-0.082,0.187-0.186,0.187l-0.4,0.007
			c-0.104,0-0.189-0.081-0.191-0.185l-0.003-0.604c0-0.102,0.083-0.189,0.186-0.191l0.402-0.004c0.104,0,0.19,0.086,0.19,0.189
			L219.725,103.333z"/>
		<path style="fill:#8DA6C7;" d="M221.545,103.319c0.002,0.105-0.085,0.191-0.188,0.189l-0.402,0.005
			c-0.102,0-0.185-0.083-0.187-0.187l-0.005-0.604c-0.001-0.104,0.084-0.19,0.188-0.19l0.404-0.002
			c0.105-0.001,0.186,0.087,0.186,0.189L221.545,103.319z"/>
		<path style="fill:#8DA6C7;" d="M223.367,103.307c0,0.104-0.087,0.188-0.186,0.188l-0.399,0.006
			c-0.107,0.003-0.192-0.083-0.192-0.19l-0.005-0.598c0-0.104,0.085-0.19,0.186-0.19l0.404-0.001
			c0.104-0.004,0.188,0.08,0.186,0.187L223.367,103.307z"/>
		<path style="fill:#8DA6C7;" d="M225.188,103.297c0,0.102-0.082,0.186-0.189,0.189l-0.397,0.001
			c-0.105-0.001-0.19-0.082-0.19-0.185l-0.001-0.603c-0.005-0.105,0.081-0.191,0.186-0.19l0.399-0.001
			c0.102,0,0.188,0.08,0.189,0.186L225.188,103.297z"/>
		<path style="fill:#8DA6C7;" d="M183.098,104.604c0.003,0.113-0.092,0.206-0.207,0.21l-1.24,0.009c-0.115,0-0.208-0.095-0.21-0.207
			l-0.016-2.483c-0.001-0.116,0.09-0.207,0.202-0.211l1.246-0.007c0.113,0,0.208,0.09,0.21,0.208L183.098,104.604z"/>
		<path style="fill:#8DA6C7;" d="M196.663,110.797c-0.65-0.041-1.017-0.106-1.017-0.106l-0.033-4.742l1.016-0.122L196.663,110.797z"
			/>
		<polygon style="fill:#E6E6E6;" points="228.626,102.28 231.262,106.354 234.03,105.188 		"/>
		<path style="fill:#8DA6C7;" d="M173.143,101.651c0,0,1.296-1.008,1.834-1.229l0.771-0.012l-1.379,1.363
			C174.369,101.773,173.297,101.773,173.143,101.651z"/>
		<polygon style="fill:#8DA6C7;" points="176.041,100.41 174.862,101.771 176.543,101.764 176.862,100.406 		"/>
		<path style="fill:#E6E6E6;" d="M198.727,105.819l2.44,4.694c0,0,2.393-0.302,3.303-0.781l-5.178-3.884L198.727,105.819z"/>
		<polygon style="fill:#FFFFFF;" points="197.342,104.294 210.241,104.205 217.042,118.098 213.375,118.128 		"/>
		<g>
			<polygon style="fill:#E6E6E6;" points="199.166,105.354 213.375,118.128 212.647,118.133 198.264,105.361 			"/>
		</g>
		<polygon style="fill:#FFFFFF;" points="196.029,100.101 212.213,91.862 215.079,91.841 209.55,100.004 		"/>
		<polygon style="fill:#FFFFFF;" points="228.626,102.28 238.148,107.406 241.801,107.363 236.049,102.23 		"/>
	</g>
	<g>
		<path style="fill:#737071;" d="M161.727,380.66c0,1.565,13.368,2.834,29.856,2.834s29.857-1.269,29.857-2.834
			c0-1.567-13.368-2.836-29.857-2.836S161.727,379.093,161.727,380.66z"/>
		<g>
			<path style="fill:#3B3648;" d="M191.064,367.82c0.5,0.274,0.915,0.672,1.197,1.16c0.266,0.465,0.432,0.993,0.432,1.564
				c-0.003,0.471-0.118,0.91-0.309,1.311c-0.554-0.353-1.215-0.82-1.999-1.497c-0.003-0.002-0.011-0.002-0.013-0.009
				C190.605,369.531,190.837,368.68,191.064,367.82z"/>
			<path style="fill:#3B3648;" d="M186.483,370.525c0-0.338,0.07-0.658,0.169-0.962c0.113-0.34,0.277-0.65,0.497-0.928
				c0.396-0.513,0.948-0.895,1.591-1.073c0.07-0.022,0.136-0.049,0.205-0.064c-0.056,1.575-0.084,2.835-0.091,3.298l-0.187-0.012
				l-0.054,0.384c0,0-0.96,1.638,0.518,1.907c0.963,0.174,1.349,0.167,1.729,0.276c-0.391,0.18-0.821,0.282-1.28,0.282
				c-0.958-0.002-1.8-0.446-2.368-1.124c-0.249-0.304-0.44-0.644-0.563-1.024C186.55,371.185,186.482,370.861,186.483,370.525z"/>
			<path style="fill:#C5483A;" d="M188.613,371.169l0.054-0.384l0.187,0.012c-0.005,0.126-0.005,0.215-0.005,0.215l1.24,0.307
				c0.096-0.318,0.189-0.642,0.283-0.969c0.002,0.007,0.01,0.007,0.013,0.009c0.784,0.677,1.445,1.145,1.999,1.497
				c0.46,0.29,0.84,0.495,1.151,0.655c1.04,0.514,1.311,0.501,0.993,1.382h-0.003c-0.019,0.147-0.146,0.275-0.409,0.287
				c-0.905,0.048-1.734,0.005-2.56-0.499c-0.288-0.177-0.491-0.269-0.695-0.328c-0.38-0.109-0.766-0.103-1.729-0.276
				C187.653,372.807,188.613,371.169,188.613,371.169z"/>
			<g>
				<path style="fill:#3B3648;" d="M203.431,361.338l0.52,1.732c-2.834,1.311-4.811,4.168-4.819,7.485
					c0,0.672,0.088,1.325,0.239,1.955c0.868,3.622,4.125,6.328,8.009,6.343c3.909,0.007,7.186-2.707,8.061-6.348
					c0.148-0.611,0.234-1.249,0.238-1.907c0.009-4.559-3.692-8.278-8.251-8.294c-0.565,0-1.118,0.059-1.65,0.164l-0.511-1.72
					c0.695-0.15,1.42-0.235,2.161-0.234c5.552,0.016,10.057,4.546,10.041,10.089c-0.005,0.653-0.073,1.29-0.193,1.902
					c-0.906,4.639-5,8.15-9.898,8.139c-4.883-0.016-8.948-3.518-9.85-8.134c-0.122-0.636-0.189-1.288-0.188-1.956
					C197.354,366.422,199.863,362.879,203.431,361.338z"/>
				<path style="fill:#3B3648;" d="M182.721,369.552l-1.806-0.007c-0.278-2.42-1.598-4.525-3.502-5.852l0.845-1.588
					C180.727,363.749,182.431,366.446,182.721,369.552z"/>
				<path style="fill:#3B3648;" d="M172.729,360.425c1.279,0.001,2.499,0.257,3.623,0.696l-0.816,1.606
					c-0.88-0.325-1.824-0.51-2.813-0.515c-4.565-0.011-8.283,3.691-8.296,8.253c-0.001,0.707,0.097,1.39,0.264,2.045
					c0.903,3.575,4.132,6.235,7.987,6.251c3.871,0.009,7.125-2.656,8.035-6.251c0.083-0.339,0.152-0.685,0.196-1.037l1.806,0.006
					c-0.034,0.347-0.084,0.692-0.154,1.031c-0.942,4.593-5.02,8.056-9.887,8.047c-4.846-0.017-8.891-3.475-9.832-8.047
					c-0.131-0.664-0.205-1.349-0.204-2.052C162.656,364.913,167.179,360.407,172.729,360.425z"/>
				<path style="fill:#3B3648;" d="M208.111,370.301c0.148,0.514-0.139,1.048-0.647,1.202c-0.093,0.025-0.187,0.039-0.281,0.036
					c-0.415,0-0.79-0.271-0.918-0.686l-2.313-7.783l-0.52-1.732l-1.087-3.654l0.084-0.098l0.045-1.945l-0.738-0.002l-1.282-4.302
					c0.778,0.132,1.515,0.254,2.119,0.358l2.696,9.054l0.511,1.72L208.111,370.301z"/>
				<path style="fill:#3B3648;" d="M209.152,355.402c0.001-0.534-0.43-0.964-0.959-0.97c0.456,0.002,0.828-0.366,0.825-0.827
					l0.012-2.091c0.003-0.455-0.373-0.828-0.828-0.828l-3.152-0.012c-1.371-0.619-3.335-1.335-4.956-1.89v-0.052l8.112,0.023
					c1.518,0.005,2.753,1.245,2.749,2.765l-0.007,2.091c-0.004,1.517-1.242,2.752-2.764,2.745
					C208.715,356.364,209.152,355.93,209.152,355.402z"/>
				<path style="fill:#3B3648;" d="M206.702,355.756c0.527-0.277,0.654-0.748,0.611-1.323h0.88c0.529,0.006,0.96,0.436,0.959,0.97
					c0,0.527-0.438,0.962-0.968,0.955h-1.488c-0.527-0.006-0.961-0.434-0.957-0.963c0-0.161,0.049-0.308,0.118-0.44
					C205.872,355.643,206.027,356.111,206.702,355.756z"/>
				<path style="fill:#3B3648;" d="M191.064,367.82c0.05-0.187,0.098-0.374,0.148-0.561l8.656-9.703l-6.598-0.014
					c-0.352-0.565-0.825-1.217-1.376-1.929l9.84,0.024l0.738,0.002l-0.045,1.945l-0.084,0.098l-10.083,11.297
					C191.979,368.492,191.564,368.095,191.064,367.82z"/>
				<path style="fill:#3B3648;" d="M181.949,357.514l-0.856-1.268l0.005-0.663l3.936,0.01c1.221,0.646,2.427,1.216,3.352,1.636
					c0.252,0.112,0.482,0.214,0.689,0.304L181.949,357.514z"/>
				<path style="fill:#3B3648;" d="M179.172,356.541l1.921,0.007v-0.302l0.856,1.268l6.791,10.049
					c-0.642,0.179-1.195,0.56-1.591,1.073l-6.92-10.232l-1.971,3.702l-0.845,1.588l-3.113,5.835l6.615,0.017l1.806,0.007
					l3.932,0.012c-0.1,0.304-0.169,0.624-0.169,0.962c-0.001,0.336,0.067,0.66,0.165,0.961l-3.933-0.007l-1.806-0.006l-9.808-0.025
					l4.436-8.721l0.816-1.606l2.819-5.543l0.002-0.001L179.172,356.541z"/>
				<polygon style="fill:#3B3648;" points="181.098,355.583 181.093,356.246 181.093,356.548 179.172,356.541 179.174,355.577 
					179.175,353.998 181.099,354.005 				"/>
				<path style="fill:#3B3648;" d="M182.347,354.01l-1.248-0.005l-1.924-0.007l-1.82-0.004c-0.509,0-0.92-0.411-0.919-0.918
					c0-0.517,0.419-0.923,0.926-0.92l2.781,0.006v0.001C180.619,352.764,181.419,353.393,182.347,354.01z"/>
				<path style="fill:#FDDBAE;" d="M189.075,357.532c-0.207-0.09-0.437-0.191-0.689-0.304l2.676-2.66
					c0.289,0.355,0.568,0.703,0.832,1.046c0.551,0.712,1.023,1.364,1.376,1.929c0.064,0.098,0.136,0.204,0.19,0.293
					c0,0-1.018,4.705-2.248,9.424c-0.05,0.186-0.098,0.374-0.148,0.561c-0.227,0.859-0.458,1.711-0.692,2.529
					c-0.094,0.327-0.187,0.65-0.283,0.969l-1.24-0.307c0,0,0-0.089,0.005-0.215c0.007-0.463,0.035-1.723,0.091-3.298
					c0.135-3.483,0.442-8.451,1.127-9.54C190.072,357.959,189.689,357.8,189.075,357.532z"/>
				<path style="fill:#ABCF25;" d="M191.063,354.568l-2.676,2.66c-0.925-0.42-2.132-0.99-3.352-1.636
					c-0.939-0.495-1.861-1.036-2.688-1.583c-0.927-0.617-1.728-1.246-2.204-1.847v-0.001c-0.79-1-1.294-2.15-1.349-3.286
					l6.815-0.473C185.609,348.403,188.661,351.629,191.063,354.568z"/>
				<path style="fill:#FDDBAE;" d="M195.688,350.284c-0.534-0.197-1.101-2.159-1.461-3.789l2.903-1.405
					c0.068,1.562,0.11,2.746,0.11,2.746s1.258,0.396,2.854,0.949c1.621,0.555,3.585,1.271,4.956,1.89
					c0.945,0.428,1.611,0.816,1.661,1.069c0.196,0.989,0.55,1.932,0.602,2.688c0.043,0.575-0.084,1.046-0.611,1.323
					c-0.675,0.355-0.83-0.113-0.846-0.802c-0.009-0.556,0.069-1.254,0.052-1.802c-0.029-1.041-1.265-0.881-1.98-1.17
					c-0.186-0.074-0.688-0.172-1.356-0.287c-0.604-0.105-1.341-0.227-2.119-0.358C198.703,351.038,196.749,350.678,195.688,350.284z
					"/>
				<path style="fill:#A5DCF0;" d="M193.836,344.33c0.002-0.113-2.709,1.218-3.284,1.505c-3.903,1.937-4.653,2.275-4.942,2.568
					l-6.815,0.473c-0.073-1.443,0.525-2.771,2.046-4.06c0.853-0.721,2.021-1.517,3.873-2.952c2.4-1.872,6.267-4.946,8.641-4.493
					c0.482,0.095,0.816,0.265,1.073,0.482c0.416,0.349,0.644,0.814,0.99,1.268c0.35,0.457,0.904,0.852,1.346,1.355
					c0.346,0.397,0.622,0.864,0.651,1.496c0.049,0.987-0.323,2.23-0.283,3.117l-2.903,1.405
					C193.99,345.443,193.836,344.528,193.836,344.33z"/>
				<path style="fill:#FDDBAE;" d="M195.138,336.537l0.004,0.001c0.118,0.092,0.575,0.316,0.898,0.387
					c0.152,0.033,0.285,0.042,0.317-0.023c0.113-0.218,0.678-1.339,0.678-1.339c-0.723-0.982-1.053-1.836,0.001-2.051
					c0.31-0.061,0.646,0.154,0.674,0.815c0.021,0.655,0.578,0.739,0.658,0.552c0.238-0.527,0.418-1.93,0.834-1.926
					c0.495,0.013,1.608,0.089,2.363,0.145c0.08,0.006,0.15,0.012,0.217,0.015c0.292,0.022,0.488,0.036,0.515,0.036
					c-0.023,0.349-0.079,0.749-0.173,1.215c0.325,1.21,0.703,2.677,0.711,2.994c0.018,0.228-0.771,0.431-1.373,0.301
					c-0.303,1.016-0.782,1.771-1.717,1.771c-0.579-0.004-1.209-0.229-1.81-0.587c-0.509,0.515-0.906,1.127-1.173,1.634
					c-0.441-0.504-0.996-0.898-1.346-1.355c-0.346-0.454-0.575-0.919-0.99-1.268C194.71,337.414,194.951,336.943,195.138,336.537z"
					/>
				<path style="fill:#C5483A;" d="M201.566,333.098c-0.754-0.056-1.868-0.132-2.363-0.145c-0.416-0.004-0.596,1.398-0.834,1.926
					c-0.081,0.188-0.637,0.103-0.658-0.552c-0.028-0.661-0.364-0.877-0.674-0.815c-1.055,0.215-0.725,1.068-0.001,2.051
					c0,0-0.565,1.121-0.678,1.339c-0.033,0.065-0.165,0.057-0.317,0.023c-0.323-0.07-0.78-0.295-0.898-0.387l-0.004-0.001
					c-0.178-0.147-1.79-5.068,0.653-6.692c2.444-1.623,7.803-0.781,6.524,3.309c0,0-0.016-0.005-0.017-0.005
					c-0.026,0-0.223-0.014-0.515-0.036C201.716,333.109,201.645,333.103,201.566,333.098z"/>
			</g>
		</g>
	</g>
	<g>
		<rect x="326.939" y="261.627" style="fill:#9EEFCD;" width="40.732" height="62.826"/>
		<rect x="360.26" y="261.627" style="fill:#79C8A5;" width="45.91" height="62.826"/>
		<polygon style="fill:#9EEFCD;" points="326.939,261.627 343.988,236.37 360.26,261.627 		"/>
		<polygon style="fill:#786D65;" points="406.17,261.627 360.26,261.627 343.988,236.37 387.998,236.37 		"/>
		<g>
			<rect x="374.883" y="232.996" style="fill:#9EEFCD;" width="4.445" height="12.629"/>
			<rect x="379.328" y="232.996" style="fill:#79C8A5;" width="6.75" height="12.629"/>
			<rect x="373.516" y="229.658" style="fill:#9EEFCD;" width="7.176" height="4.344"/>
			<rect x="380.691" y="229.658" style="fill:#79C8A5;" width="7.176" height="4.344"/>
			<rect x="379.328" y="234.002" style="fill:#6CB497;" width="6.75" height="0.777"/>
			<rect x="374.883" y="234.002" style="fill:#6CB497;" width="4.451" height="0.777"/>
		</g>
		<rect x="360.26" y="261.627" style="fill:#6CB497;" width="45.91" height="2.784"/>
		<rect x="326.939" y="318.405" style="fill:#93877F;" width="33.32" height="13.965"/>
		<rect x="360.26" y="318.405" style="fill:#786D65;" width="45.91" height="13.965"/>
		<g>
			<rect x="363.459" y="295.014" style="fill:#9EEFCD;" width="10.189" height="17.55"/>
			<rect x="363.459" y="295.014" style="fill:#6CB497;" width="8.66" height="16.009"/>
		</g>
		<g>
			<rect x="378.117" y="295.406" style="fill:#9EEFCD;" width="10.189" height="17.553"/>
			<rect x="378.117" y="295.406" style="fill:#6CB497;" width="8.66" height="16.002"/>
		</g>
		<g>
			<rect x="392.787" y="295.406" style="fill:#9EEFCD;" width="10.197" height="17.553"/>
			<rect x="392.787" y="295.406" style="fill:#6CB497;" width="8.658" height="16.002"/>
		</g>
		<g>
			<rect x="362.685" y="270.782" style="fill:#9EEFCD;" width="10.192" height="17.551"/>
			<rect x="362.685" y="270.782" style="fill:#6CB497;" width="8.662" height="16.01"/>
		</g>
		<g>
			<rect x="377.346" y="271.175" style="fill:#9EEFCD;" width="10.189" height="17.554"/>
			<rect x="377.346" y="271.175" style="fill:#6CB497;" width="8.658" height="16.001"/>
		</g>
		<g>
			<rect x="392.016" y="271.175" style="fill:#9EEFCD;" width="10.195" height="17.554"/>
			<rect x="392.016" y="271.175" style="fill:#6CB497;" width="8.658" height="16.001"/>
		</g>
		<g>
			<g>
				<g>
					<path style="fill:#6CB497;" d="M348.725,310.752c0-3.494-2.83-6.322-6.324-6.322s-6.324,2.828-6.324,6.322l0.141,21.638h12.508
						V310.752z"/>
				</g>
			</g>
			<g>
				<g>
					<path style="fill:#79C8A5;" d="M348.721,312.283c0-3.209-2.502-5.794-5.588-5.794c-3.086,0-5.586,2.585-5.586,5.794
						l0.096,20.106h11.082L348.721,312.283z"/>
				</g>
			</g>
		</g>
		<g>
			<path style="fill:#79C8A5;" d="M348.363,254.221c0,2.413-1.961,4.373-4.375,4.373c-2.416,0-4.371-1.96-4.371-4.373
				c0-2.418,1.955-4.369,4.371-4.369C346.402,249.852,348.363,251.803,348.363,254.221z"/>
			<g>
				<path style="fill:#6CB497;" d="M341.645,254.221c0-2.064,1.432-3.795,3.358-4.251c-0.326-0.084-0.668-0.118-1.014-0.118
					c-2.416,0-4.371,1.951-4.371,4.369c0,2.413,1.955,4.373,4.371,4.373c0.346,0,0.688-0.041,1.014-0.123
					C343.076,258.01,341.645,256.283,341.645,254.221z"/>
			</g>
		</g>
	</g>
	<g>
		<rect x="97.565" y="363.619" style="fill:#744E3A;" width="2.457" height="25.358"/>
		<g>
			<path style="fill:#BCD951;" d="M88.682,355.954c0,9.703,4.567,17.574,10.202,17.574v-46.351
				C98.884,327.178,88.682,346.249,88.682,355.954z"/>
			<path style="fill:#ABCF25;" d="M98.884,327.178v46.351c5.636,0,10.202-7.871,10.202-17.574
				C109.085,346.249,98.884,327.178,98.884,327.178z"/>
		</g>
	</g>
	<g>
		<rect x="378.156" y="363.619" style="fill:#744E3A;" width="2.459" height="25.358"/>
		<g>
			<path style="fill:#BCD951;" d="M389.498,355.954c0,9.703-4.568,17.574-10.201,17.574v-46.351
				C379.297,327.178,389.498,346.249,389.498,355.954z"/>
			<path style="fill:#ABCF25;" d="M379.297,327.178v46.351c-5.635,0-10.203-7.871-10.203-17.574
				C369.094,346.249,379.297,327.178,379.297,327.178z"/>
		</g>
	</g>
	<g>
		<path style="fill:#ABCF25;" d="M68.252,335.579v-5.47l5.503-5.354l-1.048-0.789l-4.455,4.337v-6.135l5.541-5.389l-1.05-0.795
			l-4.491,4.365v-5.285h-1.048v-8.114c8.047,0,14.576,6.423,14.576,14.349C81.78,328.863,75.81,335.049,68.252,335.579z"/>
		<path style="fill:#BCD951;" d="M66.974,315.065h-0.816v5.214l-4.414-4.294l-1.053,0.795l5.467,5.315v6.329l-4.449-3.973
			l-1.009,0.832l5.458,4.873v5.423c-7.557-0.53-13.525-6.712-13.525-14.28c0-7.926,6.524-14.349,14.571-14.349v8.114H66.974z"/>
		<polygon style="fill:#744E3A;" points="66.158,328.424 66.158,322.095 60.691,316.779 61.744,315.984 66.158,320.278 
			66.158,315.065 66.974,315.065 67.204,315.065 68.252,315.065 68.252,320.35 72.743,315.984 73.793,316.779 68.252,322.168 
			68.252,328.303 72.707,323.966 73.755,324.755 68.252,330.109 68.252,335.579 68.252,352.252 66.158,352.252 66.158,335.579 
			66.158,330.156 60.701,325.283 61.709,324.451 		"/>
	</g>
	<g>
		<path style="fill:#ABCF25;" d="M309.828,315.696v-5.469l-5.502-5.355l1.049-0.789l4.453,4.336v-6.135l-5.539-5.389l1.049-0.796
			l4.49,4.364v-5.283h1.049v-8.113c-8.047,0-14.576,6.422-14.576,14.347C296.301,308.979,302.271,315.166,309.828,315.696z"/>
		<path style="fill:#BCD951;" d="M311.107,295.182h0.816v5.214l4.412-4.295l1.053,0.796l-5.465,5.314v6.332l4.447-3.976l1.01,0.833
			l-5.457,4.874v5.422c7.555-0.53,13.523-6.712,13.523-14.281c0-7.925-6.523-14.347-14.57-14.347v8.113H311.107z"/>
		<polygon style="fill:#744E3A;" points="311.924,308.543 311.924,302.211 317.389,296.897 316.336,296.101 311.924,300.396 
			311.924,295.182 311.107,295.182 310.877,295.182 309.828,295.182 309.828,300.465 305.338,296.101 304.289,296.897 
			309.828,302.285 309.828,308.42 305.375,304.084 304.326,304.873 309.828,310.228 309.828,315.696 309.828,332.37 311.924,332.37 
			311.924,315.696 311.924,310.274 317.381,305.4 316.371,304.567 		"/>
	</g>
	<g>
		<path style="fill:#ABCF25;" d="M166.144,315.696v-5.469l-5.503-5.355l1.049-0.789l4.454,4.336v-6.135l-5.54-5.389l1.05-0.796
			l4.49,4.364v-5.283h1.05v-8.113c-8.047,0-14.578,6.422-14.578,14.347C152.615,308.979,158.587,315.166,166.144,315.696z"/>
		<path style="fill:#BCD951;" d="M167.422,295.182h0.816v5.214l4.412-4.295l1.054,0.796l-5.466,5.314v6.332l4.45-3.976l1.007,0.833
			l-5.457,4.874v5.422c7.556-0.53,13.524-6.712,13.524-14.281c0-7.925-6.523-14.347-14.569-14.347v8.113H167.422z"/>
		<polygon style="fill:#744E3A;" points="168.238,308.543 168.238,302.211 173.704,296.897 172.65,296.101 168.238,300.396 
			168.238,295.182 167.422,295.182 167.193,295.182 166.144,295.182 166.144,300.465 161.653,296.101 160.604,296.897 
			166.144,302.285 166.144,308.42 161.689,304.084 160.641,304.873 166.144,310.228 166.144,315.696 166.144,332.37 168.238,332.37 
			168.238,315.696 168.238,310.274 173.695,305.4 172.688,304.567 		"/>
	</g>
	<g>
		<path style="fill:#ABCF25;" d="M412.859,335.579v-5.47l5.504-5.354l-1.049-0.789l-4.455,4.337v-6.135l5.541-5.389l-1.051-0.795
			l-4.49,4.365v-5.285h-1.049v-8.114c8.047,0,14.578,6.423,14.578,14.349C426.389,328.863,420.416,335.049,412.859,335.579z"/>
		<path style="fill:#BCD951;" d="M411.582,315.065h-0.816v5.214l-4.414-4.294l-1.053,0.795l5.467,5.315v6.329l-4.449-3.973
			l-1.008,0.832l5.457,4.873v5.423c-7.557-0.53-13.525-6.712-13.525-14.28c0-7.926,6.523-14.349,14.57-14.349v8.114H411.582z"/>
		<polygon style="fill:#744E3A;" points="410.766,328.424 410.766,322.095 405.299,316.779 406.352,315.984 410.766,320.278 
			410.766,315.065 411.582,315.065 411.81,315.065 412.859,315.065 412.859,320.35 417.35,315.984 418.4,316.779 412.859,322.168 
			412.859,328.303 417.314,323.966 418.363,324.755 412.859,330.109 412.859,335.579 412.859,352.252 410.766,352.252 
			410.766,335.579 410.766,330.156 405.309,325.283 406.316,324.451 		"/>
	</g>
	<path style="fill:#737071;" d="M358.744,379.326c0,2.302-23.642,4.168-52.805,4.168c-29.164,0-52.805-1.866-52.805-4.168
		c0-2.302,23.641-4.17,52.805-4.17C335.102,375.156,358.744,377.024,358.744,379.326z"/>
	<g>
		<g>
			<path style="fill:#FFC42E;" d="M277.547,337.029c0,0,43.059,0,51.25,0c8.199,0,14.188,9.775,15.512,15.17
				c1.197,4.871,0.654,20.129,0.654,20.129h-8.328c0-5.846-4.744-10.592-10.6-10.592c-5.848,0-10.592,4.746-10.592,10.592h-24.365
				c0-5.846-4.742-10.592-10.592-10.592c-5.855,0-10.6,4.746-10.6,10.592h-6.984c0-4.865,0-12.854,0-21.18
				C262.902,337.727,277.547,337.029,277.547,337.029z"/>
			<path style="fill:#F7AD2A;" d="M326.035,361.736c5.855,0,10.6,4.746,10.6,10.592h-21.191
				C315.443,366.482,320.188,361.736,326.035,361.736z"/>
			<path style="fill:#F7AD2A;" d="M280.486,361.736c5.85,0,10.592,4.746,10.592,10.592h-21.191
				C269.887,366.482,274.631,361.736,280.486,361.736z"/>
		</g>
		<polygon style="fill:#D85D3A;" points="262.902,360.433 345.035,360.433 344.953,358.078 262.902,358.078 		"/>
		<path style="fill:#2BC7DE;" d="M328.092,339.76h-4.531h-4.529v12.492h4.529h17.018C340.578,345.353,334.988,339.76,328.092,339.76
			z"/>
		<g>
			<path style="fill:#3B3648;" d="M317.791,372.328c0,4.561,3.69,8.252,8.244,8.252c4.559,0,8.252-3.691,8.252-8.252
				c0-4.554-3.693-8.246-8.252-8.246C321.48,364.082,317.791,367.774,317.791,372.328z"/>
			<path style="fill:#767471;" d="M326.035,377.037c2.6,0,4.713-2.112,4.713-4.709c0-2.594-2.113-4.707-4.713-4.707
				c-2.594,0-4.707,2.113-4.707,4.707C321.328,374.925,323.441,377.037,326.035,377.037z"/>
		</g>
		<g>
			<path style="fill:#3B3648;" d="M288.732,372.328c0,4.561-3.695,8.252-8.246,8.252c-4.561,0-8.254-3.691-8.254-8.252
				c0-4.554,3.693-8.246,8.254-8.246C285.037,364.082,288.732,367.774,288.732,372.328z"/>
			<g>
				<path style="fill:#767471;" d="M280.486,377.037c-2.6,0-4.715-2.112-4.715-4.709c0-2.594,2.115-4.707,4.715-4.707
					c2.592,0,4.703,2.113,4.703,4.707C285.189,374.925,283.078,377.037,280.486,377.037z"/>
				<g>
					<path style="fill:#DEE5E9;" d="M326.035,367.148c-2.854,0-5.18,2.326-5.18,5.18c0,2.859,2.326,5.182,5.18,5.182
						c2.861,0,5.184-2.322,5.184-5.182C331.219,369.475,328.896,367.148,326.035,367.148z M326.035,376.563
						c-2.336,0-4.232-1.891-4.232-4.234c0-2.34,1.896-4.23,4.232-4.23c2.342,0,4.236,1.891,4.236,4.23
						C330.271,374.672,328.377,376.563,326.035,376.563z"/>
					<path style="fill:#DEE5E9;" d="M280.486,367.148c-2.861,0-5.189,2.326-5.189,5.18c0,2.859,2.328,5.182,5.189,5.182
						c2.855,0,5.18-2.322,5.18-5.182C285.666,369.475,283.342,367.148,280.486,367.148z M280.486,376.563
						c-2.344,0-4.24-1.891-4.24-4.234c0-2.34,1.896-4.23,4.24-4.23c2.334,0,4.228,1.891,4.228,4.23
						C284.715,374.672,282.82,376.563,280.486,376.563z"/>
				</g>
			</g>
		</g>
		<path style="fill:#D85D3A;" d="M319.021,356.778c0,0.283,0.229,0.514,0.514,0.514h3.592c0.281,0,0.512-0.23,0.512-0.514v-0.284
			c0-0.284-0.23-0.514-0.512-0.514h-3.592c-0.285,0-0.514,0.229-0.514,0.514V356.778z"/>
		<rect x="345.066" y="363.348" style="fill:#D85D3A;" width="1.408" height="4.534"/>
		<rect x="261.498" y="363.348" style="fill:#D85D3A;" width="1.404" height="4.534"/>
		<g>
			<path style="fill:#80DDEB;" d="M292.191,339.819h22.139c0.289,0,0.522,0.234,0.522,0.521v11.334c0,0.087-0.023,0.169-0.063,0.243
				l-23.014-11.89C291.873,339.9,292.023,339.819,292.191,339.819z"/>
			<path style="fill:#2BC7DE;" d="M314.789,351.918c-0.088,0.164-0.258,0.281-0.459,0.281h-22.139c-0.291,0-0.523-0.24-0.523-0.524
				v-11.334c0-0.119,0.041-0.23,0.107-0.313L314.789,351.918z"/>
		</g>
		<g>
			<path style="fill:#80DDEB;" d="M278.432,339.76h4.531h4.523v12.492l-14.164-11.399
				C274.879,340.151,276.609,339.76,278.432,339.76z"/>
			<path style="fill:#2BC7DE;" d="M273.322,340.853l14.164,11.399h-4.523h-17.018C265.945,347.179,268.971,342.81,273.322,340.853z"
				/>
		</g>
	</g>
</g>
</svg>
